<?xml version="1.0" encoding="UTF-8" standalone="no"?>
<!DOCTYPE svg PUBLIC "-//W3C//DTD SVG 1.1//EN"
 "http://www.w3.org/Graphics/SVG/1.1/DTD/svg11.dtd">
<!-- Generated by graphviz version 2.36.0 (20140111.2315)
 -->
<!-- Title: ev3_control::H4REv3Port::writeInt Pages: 1 -->
<svg width="308pt" height="283pt"
 viewBox="0.00 0.00 308.00 283.00" xmlns="http://www.w3.org/2000/svg" xmlns:xlink="http://www.w3.org/1999/xlink">
<g id="graph0" class="graph" transform="scale(1 1) rotate(0) translate(4 279)">
<title>ev3_control::H4REv3Port::writeInt</title>
<polygon fill="white" stroke="none" points="-4,4 -4,-279 304,-279 304,4 -4,4"/>
<!-- Node1 -->
<g id="node1" class="node"><title>Node1</title>
<polygon fill="#bfbfbf" stroke="black" points="0,-122 0,-152 128,-152 128,-122 0,-122"/>
<text text-anchor="start" x="8" y="-140" font-family="Helvetica,sans-Serif" font-size="10.00">ev3_control::H4REv3Port</text>
<text text-anchor="middle" x="64" y="-129" font-family="Helvetica,sans-Serif" font-size="10.00">::writeInt</text>
</g>
<!-- Node2 -->
<g id="node2" class="node"><title>Node2</title>
<g id="a_node2"><a xlink:href="classev3__control_1_1_h4_r_ev3_motor.html#aff6f84e0e9ac3cb9ef7bb6f0b14979e6" target="_top" xlink:title="ev3_control::H4REv3Motor\l::setDutyCycleSP">
<polygon fill="white" stroke="black" points="164.5,-245 164.5,-275 299.5,-275 299.5,-245 164.5,-245"/>
<text text-anchor="start" x="172.5" y="-263" font-family="Helvetica,sans-Serif" font-size="10.00">ev3_control::H4REv3Motor</text>
<text text-anchor="middle" x="232" y="-252" font-family="Helvetica,sans-Serif" font-size="10.00">::setDutyCycleSP</text>
</a>
</g>
</g>
<!-- Node1&#45;&gt;Node2 -->
<g id="edge1" class="edge"><title>Node1&#45;&gt;Node2</title>
<path fill="none" stroke="midnightblue" d="M83.3189,-160.11C101.701,-181.981 131.837,-214.442 164,-235 169.858,-238.744 176.359,-242.047 182.942,-244.922"/>
<polygon fill="midnightblue" stroke="midnightblue" points="85.9333,-157.779 76.8695,-152.293 80.5337,-162.234 85.9333,-157.779"/>
</g>
<!-- Node3 -->
<g id="node3" class="node"><title>Node3</title>
<g id="a_node3"><a xlink:href="classev3__control_1_1_h4_r_ev3_motor.html#a8b7e044056717c49c8aa06b625860467" target="_top" xlink:title="ev3_control::H4REv3Motor\l::setSpeedSP">
<polygon fill="white" stroke="black" points="164.5,-196 164.5,-226 299.5,-226 299.5,-196 164.5,-196"/>
<text text-anchor="start" x="172.5" y="-214" font-family="Helvetica,sans-Serif" font-size="10.00">ev3_control::H4REv3Motor</text>
<text text-anchor="middle" x="232" y="-203" font-family="Helvetica,sans-Serif" font-size="10.00">::setSpeedSP</text>
</a>
</g>
</g>
<!-- Node1&#45;&gt;Node3 -->
<g id="edge2" class="edge"><title>Node1&#45;&gt;Node3</title>
<path fill="none" stroke="midnightblue" d="M102.559,-156.722C120.882,-166.052 143.372,-177.075 164,-186 171.862,-189.402 180.353,-192.786 188.564,-195.915"/>
<polygon fill="midnightblue" stroke="midnightblue" points="104.152,-153.606 93.657,-152.157 100.958,-159.835 104.152,-153.606"/>
</g>
<!-- Node4 -->
<g id="node4" class="node"><title>Node4</title>
<g id="a_node4"><a xlink:href="classev3__control_1_1_h4_r_ev3_motor.html#a5aa6cc8cf3ad7e0a96090ee4cb057bed" target="_top" xlink:title="ev3_control::H4REv3Motor\l::setPositionSP">
<polygon fill="white" stroke="black" points="164.5,-147 164.5,-177 299.5,-177 299.5,-147 164.5,-147"/>
<text text-anchor="start" x="172.5" y="-165" font-family="Helvetica,sans-Serif" font-size="10.00">ev3_control::H4REv3Motor</text>
<text text-anchor="middle" x="232" y="-154" font-family="Helvetica,sans-Serif" font-size="10.00">::setPositionSP</text>
</a>
</g>
</g>
<!-- Node1&#45;&gt;Node4 -->
<g id="edge3" class="edge"><title>Node1&#45;&gt;Node4</title>
<path fill="none" stroke="midnightblue" d="M138.315,-148.041C146.981,-149.347 155.79,-150.673 164.357,-151.963"/>
<polygon fill="midnightblue" stroke="midnightblue" points="138.641,-144.551 128.231,-146.523 137.598,-151.473 138.641,-144.551"/>
</g>
<!-- Node5 -->
<g id="node5" class="node"><title>Node5</title>
<g id="a_node5"><a xlink:href="classev3__control_1_1_h4_r_ev3_motor.html#ab7aa7472d2ca0e006b4d82bccf70d6d3" target="_top" xlink:title="ev3_control::H4REv3Motor\l::setSpeedPID_Kp">
<polygon fill="white" stroke="black" points="164.5,-98 164.5,-128 299.5,-128 299.5,-98 164.5,-98"/>
<text text-anchor="start" x="172.5" y="-116" font-family="Helvetica,sans-Serif" font-size="10.00">ev3_control::H4REv3Motor</text>
<text text-anchor="middle" x="232" y="-105" font-family="Helvetica,sans-Serif" font-size="10.00">::setSpeedPID_Kp</text>
</a>
</g>
</g>
<!-- Node1&#45;&gt;Node5 -->
<g id="edge4" class="edge"><title>Node1&#45;&gt;Node5</title>
<path fill="none" stroke="midnightblue" d="M138.315,-126.4C146.981,-125.147 155.79,-123.874 164.357,-122.635"/>
<polygon fill="midnightblue" stroke="midnightblue" points="137.627,-122.963 128.231,-127.858 138.629,-129.891 137.627,-122.963"/>
</g>
<!-- Node6 -->
<g id="node6" class="node"><title>Node6</title>
<g id="a_node6"><a xlink:href="classev3__control_1_1_h4_r_ev3_motor.html#a4216b528e375ab9657788cf05b809e93" target="_top" xlink:title="ev3_control::H4REv3Motor\l::setSpeedPID_Ki">
<polygon fill="white" stroke="black" points="164.5,-49 164.5,-79 299.5,-79 299.5,-49 164.5,-49"/>
<text text-anchor="start" x="172.5" y="-67" font-family="Helvetica,sans-Serif" font-size="10.00">ev3_control::H4REv3Motor</text>
<text text-anchor="middle" x="232" y="-56" font-family="Helvetica,sans-Serif" font-size="10.00">::setSpeedPID_Ki</text>
</a>
</g>
</g>
<!-- Node1&#45;&gt;Node6 -->
<g id="edge5" class="edge"><title>Node1&#45;&gt;Node6</title>
<path fill="none" stroke="midnightblue" d="M103.252,-117.411C121.464,-108.354 143.662,-97.7019 164,-89 171.99,-85.5813 180.62,-82.1631 188.943,-79.0005"/>
<polygon fill="midnightblue" stroke="midnightblue" points="101.496,-114.376 94.122,-121.983 104.631,-120.635 101.496,-114.376"/>
</g>
<!-- Node7 -->
<g id="node7" class="node"><title>Node7</title>
<g id="a_node7"><a xlink:href="classev3__control_1_1_h4_r_ev3_motor.html#a45f54281538eeb9057983070c1e777d7" target="_top" xlink:title="ev3_control::H4REv3Motor\l::setSpeedPID_Kd">
<polygon fill="white" stroke="black" points="164.5,-0 164.5,-30 299.5,-30 299.5,-0 164.5,-0"/>
<text text-anchor="start" x="172.5" y="-18" font-family="Helvetica,sans-Serif" font-size="10.00">ev3_control::H4REv3Motor</text>
<text text-anchor="middle" x="232" y="-7" font-family="Helvetica,sans-Serif" font-size="10.00">::setSpeedPID_Kd</text>
</a>
</g>
</g>
<!-- Node1&#45;&gt;Node7 -->
<g id="edge6" class="edge"><title>Node1&#45;&gt;Node7</title>
<path fill="none" stroke="midnightblue" d="M83.3673,-114.137C101.785,-92.4961 131.947,-60.3721 164,-40 169.868,-36.2706 176.374,-32.9766 182.96,-30.1059"/>
<polygon fill="midnightblue" stroke="midnightblue" points="80.6307,-111.953 76.9039,-121.871 86.0021,-116.442 80.6307,-111.953"/>
</g>
</g>
</svg>
