<?xml version="1.0" encoding="UTF-8" standalone="no"?>
<!DOCTYPE svg PUBLIC "-//W3C//DTD SVG 1.1//EN"
 "http://www.w3.org/Graphics/SVG/1.1/DTD/svg11.dtd">
<!-- Generated by graphviz version 2.36.0 (20140111.2315)
 -->
<!-- Title: ev3_control::Ev3InfraredController Pages: 1 -->
<svg width="176pt" height="108pt"
 viewBox="0.00 0.00 176.00 108.00" xmlns="http://www.w3.org/2000/svg" xmlns:xlink="http://www.w3.org/1999/xlink">
<g id="graph0" class="graph" transform="scale(1 1) rotate(0) translate(4 104)">
<title>ev3_control::Ev3InfraredController</title>
<polygon fill="white" stroke="none" points="-4,4 -4,-104 172,-104 172,4 -4,4"/>
<!-- Node1 -->
<g id="node1" class="node"><title>Node1</title>
<polygon fill="#bfbfbf" stroke="black" points="22.5,-1 22.5,-31 145.5,-31 145.5,-1 22.5,-1"/>
<text text-anchor="start" x="30.5" y="-19" font-family="Helvetica,sans-Serif" font-size="10.00">ev3_control::Ev3Infrared</text>
<text text-anchor="middle" x="84" y="-8" font-family="Helvetica,sans-Serif" font-size="10.00">Controller</text>
</g>
<!-- Node2 -->
<g id="node2" class="node"><title>Node2</title>
<polygon fill="white" stroke="#bfbfbf" points="-0.5,-69 -0.5,-99 168.5,-99 168.5,-69 -0.5,-69"/>
<text text-anchor="start" x="7.5" y="-87" font-family="Helvetica,sans-Serif" font-size="10.00">controller_interface</text>
<text text-anchor="middle" x="84" y="-76" font-family="Helvetica,sans-Serif" font-size="10.00">::Controller&lt; Ev3SensorInterface &gt;</text>
</g>
<!-- Node2&#45;&gt;Node1 -->
<g id="edge1" class="edge"><title>Node2&#45;&gt;Node1</title>
<path fill="none" stroke="midnightblue" d="M84,-58.5322C84,-49.3606 84,-39.2449 84,-31.2931"/>
<polygon fill="midnightblue" stroke="midnightblue" points="80.5001,-58.6789 84,-68.679 87.5001,-58.679 80.5001,-58.6789"/>
</g>
</g>
</svg>
