<?xml version="1.0" encoding="UTF-8" standalone="no"?>
<!DOCTYPE svg PUBLIC "-//W3C//DTD SVG 1.1//EN"
 "http://www.w3.org/Graphics/SVG/1.1/DTD/svg11.dtd">
<!-- Generated by graphviz version 2.36.0 (20140111.2315)
 -->
<!-- Title: ev3_control::H4REv3Port Pages: 1 -->
<svg width="308pt" height="258pt"
 viewBox="0.00 0.00 308.00 258.00" xmlns="http://www.w3.org/2000/svg" xmlns:xlink="http://www.w3.org/1999/xlink">
<g id="graph0" class="graph" transform="scale(1 1) rotate(0) translate(4 254)">
<title>ev3_control::H4REv3Port</title>
<polygon fill="white" stroke="none" points="-4,4 -4,-254 304,-254 304,4 -4,4"/>
<!-- Node1 -->
<g id="node1" class="node"><title>Node1</title>
<polygon fill="#bfbfbf" stroke="black" points="46,-0.5 46,-19.5 174,-19.5 174,-0.5 46,-0.5"/>
<text text-anchor="middle" x="110" y="-7.5" font-family="Helvetica,sans-Serif" font-size="10.00">ev3_control::H4REv3Port</text>
</g>
<!-- Node2 -->
<g id="node2" class="node"><title>Node2</title>
<g id="a_node2"><a xlink:href="classev3__control_1_1_h4_r_ev3_port_1_1_open_file.html" target="_top" xlink:title="ev3_control::H4REv3Port\l::OpenFile">
<polygon fill="white" stroke="black" points="172,-70 172,-100 300,-100 300,-70 172,-70"/>
<text text-anchor="start" x="180" y="-88" font-family="Helvetica,sans-Serif" font-size="10.00">ev3_control::H4REv3Port</text>
<text text-anchor="middle" x="236" y="-77" font-family="Helvetica,sans-Serif" font-size="10.00">::OpenFile</text>
</a>
</g>
</g>
<!-- Node2&#45;&gt;Node1 -->
<g id="edge1" class="edge"><title>Node2&#45;&gt;Node1</title>
<path fill="none" stroke="#9a32cd" stroke-dasharray="5,2" d="M202.796,-64.7627C177.471,-50.0903 143.8,-30.5828 124.762,-19.5528"/>
<polygon fill="#9a32cd" stroke="#9a32cd" points="201.299,-67.9402 211.706,-69.9249 204.808,-61.8833 201.299,-67.9402"/>
<text text-anchor="middle" x="208.5" y="-41.5" font-family="Helvetica,sans-Serif" font-size="10.00"> f_driver_name</text>
</g>
<!-- Node3 -->
<g id="node3" class="node"><title>Node3</title>
<g id="a_node3"><a xlink:href="class_fixed_buffer_1_1_fixed_buffer.html" target="_top" xlink:title="FixedBuffer::FixedBuffer\l\&lt; 256 \&gt;">
<polygon fill="white" stroke="black" points="12.5,-151 12.5,-181 135.5,-181 135.5,-151 12.5,-151"/>
<text text-anchor="start" x="20.5" y="-169" font-family="Helvetica,sans-Serif" font-size="10.00">FixedBuffer::FixedBuffer</text>
<text text-anchor="middle" x="74" y="-158" font-family="Helvetica,sans-Serif" font-size="10.00">&lt; 256 &gt;</text>
</a>
</g>
</g>
<!-- Node3&#45;&gt;Node1 -->
<g id="edge4" class="edge"><title>Node3&#45;&gt;Node1</title>
<path fill="none" stroke="#9a32cd" stroke-dasharray="5,2" d="M67.1836,-140.906C62.7024,-120.874 59.0011,-91.8851 67,-68 73.6131,-48.2528 90.0651,-29.876 100.594,-19.5753"/>
<polygon fill="#9a32cd" stroke="#9a32cd" points="63.8202,-141.886 69.6119,-150.758 70.6168,-140.211 63.8202,-141.886"/>
<text text-anchor="start" x="67" y="-93.5" font-family="Helvetica,sans-Serif" font-size="10.00"> sys_device_directory</text>
<text text-anchor="middle" x="115" y="-82.5" font-family="Helvetica,sans-Serif" font-size="10.00">_</text>
<text text-anchor="middle" x="115" y="-71.5" font-family="Helvetica,sans-Serif" font-size="10.00">sys_port_directory_</text>
</g>
<!-- Node3&#45;&gt;Node2 -->
<g id="edge2" class="edge"><title>Node3&#45;&gt;Node2</title>
<path fill="none" stroke="#9a32cd" stroke-dasharray="5,2" d="M112.028,-146.456C141.172,-132.243 180.763,-112.937 207.288,-100.001"/>
<polygon fill="#9a32cd" stroke="#9a32cd" points="110.416,-143.347 102.962,-150.876 113.485,-149.639 110.416,-143.347"/>
<text text-anchor="middle" x="181.5" y="-123.5" font-family="Helvetica,sans-Serif" font-size="10.00"> fullpath</text>
</g>
<!-- Node4 -->
<g id="node4" class="node"><title>Node4</title>
<g id="a_node4"><a xlink:href="class_fixed_buffer_1_1_fixed_buffer.html" target="_top" xlink:title="A fixed&#45;size string buffer (typically stack&#45;allocated). ">
<polygon fill="white" stroke="black" points="-0.5,-230.5 -0.5,-249.5 148.5,-249.5 148.5,-230.5 -0.5,-230.5"/>
<text text-anchor="middle" x="74" y="-237.5" font-family="Helvetica,sans-Serif" font-size="10.00">FixedBuffer::FixedBuffer&lt; N &gt;</text>
</a>
</g>
</g>
<!-- Node4&#45;&gt;Node3 -->
<g id="edge3" class="edge"><title>Node4&#45;&gt;Node3</title>
<path fill="none" stroke="orange" stroke-dasharray="5,2" d="M74,-220.085C74,-207.915 74,-192.354 74,-181.232"/>
<polygon fill="orange" stroke="orange" points="70.5001,-220.458 74,-230.458 77.5001,-220.458 70.5001,-220.458"/>
<text text-anchor="middle" x="92.5" y="-203.5" font-family="Helvetica,sans-Serif" font-size="10.00"> &lt; 256 &gt;</text>
</g>
</g>
</svg>
