<?xml version="1.0" encoding="UTF-8" standalone="no"?>
<!DOCTYPE svg PUBLIC "-//W3C//DTD SVG 1.1//EN"
 "http://www.w3.org/Graphics/SVG/1.1/DTD/svg11.dtd">
<!-- Generated by graphviz version 2.36.0 (20140111.2315)
 -->
<!-- Title: ev3_control::H4REv3Port::getDriverName Pages: 1 -->
<svg width="460pt" height="87pt"
 viewBox="0.00 0.00 460.00 87.00" xmlns="http://www.w3.org/2000/svg" xmlns:xlink="http://www.w3.org/1999/xlink">
<g id="graph0" class="graph" transform="scale(1 1) rotate(0) translate(4 83)">
<title>ev3_control::H4REv3Port::getDriverName</title>
<polygon fill="white" stroke="none" points="-4,4 -4,-83 456,-83 456,4 -4,4"/>
<!-- Node1 -->
<g id="node1" class="node"><title>Node1</title>
<polygon fill="#bfbfbf" stroke="black" points="0,-24 0,-54 128,-54 128,-24 0,-24"/>
<text text-anchor="start" x="8" y="-42" font-family="Helvetica,sans-Serif" font-size="10.00">ev3_control::H4REv3Port</text>
<text text-anchor="middle" x="64" y="-31" font-family="Helvetica,sans-Serif" font-size="10.00">::getDriverName</text>
</g>
<!-- Node2 -->
<g id="node2" class="node"><title>Node2</title>
<g id="a_node2"><a xlink:href="classev3__control_1_1_h4_r_ev3_port.html#a463e44ea92292ea8e2cba35acf1e18fe" target="_top" xlink:title="ev3_control::H4REv3Port\l::isConnected">
<polygon fill="white" stroke="black" points="164,-49 164,-79 292,-79 292,-49 164,-49"/>
<text text-anchor="start" x="172" y="-67" font-family="Helvetica,sans-Serif" font-size="10.00">ev3_control::H4REv3Port</text>
<text text-anchor="middle" x="228" y="-56" font-family="Helvetica,sans-Serif" font-size="10.00">::isConnected</text>
</a>
</g>
</g>
<!-- Node1&#45;&gt;Node2 -->
<g id="edge1" class="edge"><title>Node1&#45;&gt;Node2</title>
<path fill="none" stroke="midnightblue" d="M128.097,-48.7372C136.526,-50.038 145.227,-51.3807 153.81,-52.7053"/>
<polygon fill="midnightblue" stroke="midnightblue" points="153.392,-56.182 163.808,-54.2482 154.459,-49.2639 153.392,-56.182"/>
</g>
<!-- Node4 -->
<g id="node4" class="node"><title>Node4</title>
<g id="a_node4"><a xlink:href="classev3__control_1_1_h4_r_ev3_port.html#a0e89b9c3b10136f39928cb2b2bc22a67" target="_top" xlink:title="ev3_control::H4REv3Port\l::readKey">
<polygon fill="white" stroke="black" points="164,-0 164,-30 292,-30 292,-0 164,-0"/>
<text text-anchor="start" x="172" y="-18" font-family="Helvetica,sans-Serif" font-size="10.00">ev3_control::H4REv3Port</text>
<text text-anchor="middle" x="228" y="-7" font-family="Helvetica,sans-Serif" font-size="10.00">::readKey</text>
</a>
</g>
</g>
<!-- Node1&#45;&gt;Node4 -->
<g id="edge3" class="edge"><title>Node1&#45;&gt;Node4</title>
<path fill="none" stroke="midnightblue" d="M128.097,-29.6523C136.526,-28.4035 145.227,-27.1145 153.81,-25.8429"/>
<polygon fill="midnightblue" stroke="midnightblue" points="154.429,-29.2895 163.808,-24.3617 153.403,-22.3651 154.429,-29.2895"/>
</g>
<!-- Node3 -->
<g id="node3" class="node"><title>Node3</title>
<g id="a_node3"><a xlink:href="class_fixed_buffer_1_1_fixed_buffer.html#a43a1259340e8911d6cd335ba757b3939" target="_top" xlink:title="Returns a C string (always valid). ">
<polygon fill="white" stroke="black" points="328.5,-49 328.5,-79 451.5,-79 451.5,-49 328.5,-49"/>
<text text-anchor="start" x="336.5" y="-67" font-family="Helvetica,sans-Serif" font-size="10.00">FixedBuffer::FixedBuffer</text>
<text text-anchor="middle" x="390" y="-56" font-family="Helvetica,sans-Serif" font-size="10.00">::c_str</text>
</a>
</g>
</g>
<!-- Node2&#45;&gt;Node3 -->
<g id="edge2" class="edge"><title>Node2&#45;&gt;Node3</title>
<path fill="none" stroke="midnightblue" d="M292.236,-64C300.775,-64 309.58,-64 318.239,-64"/>
<polygon fill="midnightblue" stroke="midnightblue" points="318.311,-67.5001 328.311,-64 318.311,-60.5001 318.311,-67.5001"/>
</g>
</g>
</svg>
