<?xml version="1.0" encoding="UTF-8" standalone="no"?>
<!DOCTYPE svg PUBLIC "-//W3C//DTD SVG 1.1//EN"
 "http://www.w3.org/Graphics/SVG/1.1/DTD/svg11.dtd">
<!-- Generated by graphviz version 2.36.0 (20140111.2315)
 -->
<!-- Title: ev3_control::Ev3Strings Pages: 1 -->
<!--zoomable 528 -->
<svg id="main" version="1.1" xmlns="http://www.w3.org/2000/svg" xmlns:xlink="http://www.w3.org/1999/xlink" xml:space="preserve" onload="init(evt)">
<style type="text/css"><![CDATA[
.edge:hover path { stroke: red; }
.edge:hover polygon { stroke: red; fill: red; }
]]></style>
<script type="text/javascript"><![CDATA[
var edges = document.getElementsByTagName('g');
if (edges && edges.length) {
  for (var i=0;i<edges.length;i++) {
    if (edges[i].id.substr(0,4)=='edge') {
      edges[i].setAttribute('class','edge');
    }
  }
}
]]></script>
        <defs>
                <circle id="rim" cx="0" cy="0" r="7"/>
                <circle id="rim2" cx="0" cy="0" r="3.5"/>
                <g id="zoomPlus">
                        <use xlink:href="#rim" fill="#404040">
                                <set attributeName="fill" to="#808080" begin="zoomplus.mouseover" end="zoomplus.mouseout"/>
                        </use>
                        <path d="M-4,0h8M0,-4v8" fill="none" stroke="white" stroke-width="1.5" pointer-events="none"/>
                </g>
                <g id="zoomMin">
                        <use xlink:href="#rim" fill="#404040">
                                <set attributeName="fill" to="#808080" begin="zoomminus.mouseover" end="zoomminus.mouseout"/>
                        </use>
                        <path d="M-4,0h8" fill="none" stroke="white" stroke-width="1.5" pointer-events="none"/>
                </g>
                <g id="dirArrow">
                        <path fill="none" stroke="white" stroke-width="1.5" d="M0,-3.0v7 M-2.5,-0.5L0,-3.0L2.5,-0.5"/>
                </g>
               <g id="resetDef">
                       <use xlink:href="#rim2" fill="#404040">
                               <set attributeName="fill" to="#808080" begin="reset.mouseover" end="reset.mouseout"/>
                       </use>
               </g>
        </defs>

<script type="text/javascript">
var viewWidth = 698;
var viewHeight = 528;
var sectionId = 'dynsection-0';
</script>
<script xlink:href="svgpan.js"/>
<svg id="graph" class="graph">
<g id="viewport">
<title>ev3_control::Ev3Strings</title>
<polygon fill="white" stroke="none" points="-4,4 -4,-524 694,-524 694,4 -4,4"/>
<!-- Node1 -->
<g id="node1" class="node"><title>Node1</title>
<polygon fill="#bfbfbf" stroke="black" points="568.5,-250.5 568.5,-269.5 689.5,-269.5 689.5,-250.5 568.5,-250.5"/>
<text text-anchor="middle" x="629" y="-257.5" font-family="Helvetica,sans-Serif" font-size="10.00">ev3_control::Ev3Strings</text>
</g>
<!-- Node2 -->
<g id="node2" class="node"><title>Node2</title>
<g id="a_node2"><a xlink:href="classev3__control_1_1_string_enum.html" target="_top" xlink:title="ev3_control::StringEnum\l\&lt; Ev3MotorCommands \&gt;">
<polygon fill="white" stroke="black" points="274.5,-490 274.5,-520 401.5,-520 401.5,-490 274.5,-490"/>
<text text-anchor="start" x="282.5" y="-508" font-family="Helvetica,sans-Serif" font-size="10.00">ev3_control::StringEnum</text>
<text text-anchor="middle" x="338" y="-497" font-family="Helvetica,sans-Serif" font-size="10.00">&lt; Ev3MotorCommands &gt;</text>
</a>
</g>
</g>
<!-- Node2&#45;&gt;Node1 -->
<g id="edge1" class="edge"><title>Node2&#45;&gt;Node1</title>
<path fill="none" stroke="#9a32cd" stroke-dasharray="5,2" d="M411.891,-506.994C456.448,-504.468 511.987,-494.126 550,-462 611.732,-409.828 624.79,-302.81 627.389,-269.87"/>
<polygon fill="#9a32cd" stroke="#9a32cd" points="411.526,-503.507 401.692,-507.449 411.838,-510.5 411.526,-503.507"/>
<text text-anchor="middle" x="485" y="-509" font-family="Helvetica,sans-Serif" font-size="10.00"> ev3_motor_commands_conv</text>
</g>
<!-- Node3 -->
<g id="node3" class="node"><title>Node3</title>
<g id="a_node3"><a xlink:href="classev3__control_1_1_string_enum.html" target="_top" xlink:title="ev3_control::StringEnum\l\&lt; ENUM \&gt;">
<polygon fill="white" stroke="black" points="0,-245 0,-275 124,-275 124,-245 0,-245"/>
<text text-anchor="start" x="8" y="-263" font-family="Helvetica,sans-Serif" font-size="10.00">ev3_control::StringEnum</text>
<text text-anchor="middle" x="62" y="-252" font-family="Helvetica,sans-Serif" font-size="10.00">&lt; ENUM &gt;</text>
</a>
</g>
</g>
<!-- Node3&#45;&gt;Node2 -->
<g id="edge2" class="edge"><title>Node3&#45;&gt;Node2</title>
<path fill="none" stroke="orange" stroke-dasharray="5,2" d="M64.9347,-285.187C69.741,-329.25 86.2337,-420.092 142,-467 178.425,-497.639 232.244,-506.288 274.119,-507.751"/>
<polygon fill="orange" stroke="orange" points="68.4002,-284.661 63.9478,-275.047 61.4331,-285.339 68.4002,-284.661"/>
<text text-anchor="middle" x="199" y="-509" font-family="Helvetica,sans-Serif" font-size="10.00"> &lt; Ev3MotorCommands &gt;</text>
</g>
<!-- Node4 -->
<g id="node4" class="node"><title>Node4</title>
<g id="a_node4"><a xlink:href="classev3__control_1_1_string_enum.html" target="_top" xlink:title="ev3_control::StringEnum\l\&lt; Ev3PortDrivers \&gt;">
<polygon fill="white" stroke="black" points="276,-441 276,-471 400,-471 400,-441 276,-441"/>
<text text-anchor="start" x="284" y="-459" font-family="Helvetica,sans-Serif" font-size="10.00">ev3_control::StringEnum</text>
<text text-anchor="middle" x="338" y="-448" font-family="Helvetica,sans-Serif" font-size="10.00">&lt; Ev3PortDrivers &gt;</text>
</a>
</g>
</g>
<!-- Node3&#45;&gt;Node4 -->
<g id="edge4" class="edge"><title>Node3&#45;&gt;Node4</title>
<path fill="none" stroke="orange" stroke-dasharray="5,2" d="M68.9154,-284.949C78.3494,-319.076 100.161,-379.749 142,-412 180.207,-441.451 234.412,-451.892 275.979,-455.284"/>
<polygon fill="orange" stroke="orange" points="72.2995,-284.055 66.3765,-275.27 65.5286,-285.831 72.2995,-284.055"/>
<text text-anchor="middle" x="199" y="-455" font-family="Helvetica,sans-Serif" font-size="10.00"> &lt; Ev3PortDrivers &gt;</text>
</g>
<!-- Node5 -->
<g id="node5" class="node"><title>Node5</title>
<g id="a_node5"><a xlink:href="classev3__control_1_1_string_enum.html" target="_top" xlink:title="ev3_control::StringEnum\l\&lt; Ev3UltrasonicMode \&gt;">
<polygon fill="white" stroke="black" points="276,-392 276,-422 400,-422 400,-392 276,-392"/>
<text text-anchor="start" x="284" y="-410" font-family="Helvetica,sans-Serif" font-size="10.00">ev3_control::StringEnum</text>
<text text-anchor="middle" x="338" y="-399" font-family="Helvetica,sans-Serif" font-size="10.00">&lt; Ev3UltrasonicMode &gt;</text>
</a>
</g>
</g>
<!-- Node3&#45;&gt;Node5 -->
<g id="edge6" class="edge"><title>Node3&#45;&gt;Node5</title>
<path fill="none" stroke="orange" stroke-dasharray="5,2" d="M76.289,-283.843C89.9238,-306.098 113.186,-338.565 142,-357 182.332,-382.804 235.343,-395.309 275.911,-401.36"/>
<polygon fill="orange" stroke="orange" points="79.1573,-281.818 71.0468,-275.001 73.136,-285.387 79.1573,-281.818"/>
<text text-anchor="middle" x="199" y="-400" font-family="Helvetica,sans-Serif" font-size="10.00"> &lt; Ev3UltrasonicMode &gt;</text>
</g>
<!-- Node6 -->
<g id="node6" class="node"><title>Node6</title>
<g id="a_node6"><a xlink:href="classev3__control_1_1_string_enum.html" target="_top" xlink:title="ev3_control::StringEnum\l\&lt; Ev3TouchMode \&gt;">
<polygon fill="white" stroke="black" points="276,-343 276,-373 400,-373 400,-343 276,-343"/>
<text text-anchor="start" x="284" y="-361" font-family="Helvetica,sans-Serif" font-size="10.00">ev3_control::StringEnum</text>
<text text-anchor="middle" x="338" y="-350" font-family="Helvetica,sans-Serif" font-size="10.00">&lt; Ev3TouchMode &gt;</text>
</a>
</g>
</g>
<!-- Node3&#45;&gt;Node6 -->
<g id="edge8" class="edge"><title>Node3&#45;&gt;Node6</title>
<path fill="none" stroke="orange" stroke-dasharray="5,2" d="M91.9819,-280.99C106.434,-290.656 124.524,-301.597 142,-309 185.07,-327.244 236.479,-339.815 275.696,-347.652"/>
<polygon fill="orange" stroke="orange" points="93.7203,-277.938 83.4912,-275.179 89.7667,-283.715 93.7203,-277.938"/>
<text text-anchor="middle" x="199" y="-345" font-family="Helvetica,sans-Serif" font-size="10.00"> &lt; Ev3TouchMode &gt;</text>
</g>
<!-- Node7 -->
<g id="node7" class="node"><title>Node7</title>
<g id="a_node7"><a xlink:href="classev3__control_1_1_string_enum.html" target="_top" xlink:title="ev3_control::StringEnum\l\&lt; Ev3Switch \&gt;">
<polygon fill="white" stroke="black" points="276,-294 276,-324 400,-324 400,-294 276,-294"/>
<text text-anchor="start" x="284" y="-312" font-family="Helvetica,sans-Serif" font-size="10.00">ev3_control::StringEnum</text>
<text text-anchor="middle" x="338" y="-301" font-family="Helvetica,sans-Serif" font-size="10.00">&lt; Ev3Switch &gt;</text>
</a>
</g>
</g>
<!-- Node3&#45;&gt;Node7 -->
<g id="edge10" class="edge"><title>Node3&#45;&gt;Node7</title>
<path fill="none" stroke="orange" stroke-dasharray="5,2" d="M134.314,-273.591C136.908,-274.07 139.476,-274.54 142,-275 186.797,-283.158 237.46,-291.979 275.916,-298.592"/>
<polygon fill="orange" stroke="orange" points="134.696,-270.103 124.226,-271.719 133.419,-276.985 134.696,-270.103"/>
<text text-anchor="middle" x="199" y="-297" font-family="Helvetica,sans-Serif" font-size="10.00"> &lt; Ev3Switch &gt;</text>
</g>
<!-- Node8 -->
<g id="node8" class="node"><title>Node8</title>
<g id="a_node8"><a xlink:href="classev3__control_1_1_string_enum.html" target="_top" xlink:title="ev3_control::StringEnum\l\&lt; Ev3Polarity \&gt;">
<polygon fill="white" stroke="black" points="276,-245 276,-275 400,-275 400,-245 276,-245"/>
<text text-anchor="start" x="284" y="-263" font-family="Helvetica,sans-Serif" font-size="10.00">ev3_control::StringEnum</text>
<text text-anchor="middle" x="338" y="-252" font-family="Helvetica,sans-Serif" font-size="10.00">&lt; Ev3Polarity &gt;</text>
</a>
</g>
</g>
<!-- Node3&#45;&gt;Node8 -->
<g id="edge12" class="edge"><title>Node3&#45;&gt;Node8</title>
<path fill="none" stroke="orange" stroke-dasharray="5,2" d="M134.168,-260C178.01,-260 233.652,-260 275.564,-260"/>
<polygon fill="orange" stroke="orange" points="134.15,-256.5 124.15,-260 134.15,-263.5 134.15,-256.5"/>
<text text-anchor="middle" x="199" y="-263" font-family="Helvetica,sans-Serif" font-size="10.00"> &lt; Ev3Polarity &gt;</text>
</g>
<!-- Node9 -->
<g id="node9" class="node"><title>Node9</title>
<g id="a_node9"><a xlink:href="classev3__control_1_1_string_enum.html" target="_top" xlink:title="ev3_control::StringEnum\l\&lt; Ev3DriverName \&gt;">
<polygon fill="white" stroke="black" points="276,-196 276,-226 400,-226 400,-196 276,-196"/>
<text text-anchor="start" x="284" y="-214" font-family="Helvetica,sans-Serif" font-size="10.00">ev3_control::StringEnum</text>
<text text-anchor="middle" x="338" y="-203" font-family="Helvetica,sans-Serif" font-size="10.00">&lt; Ev3DriverName &gt;</text>
</a>
</g>
</g>
<!-- Node3&#45;&gt;Node9 -->
<g id="edge14" class="edge"><title>Node3&#45;&gt;Node9</title>
<path fill="none" stroke="orange" stroke-dasharray="5,2" d="M134.314,-246.409C136.908,-245.93 139.476,-245.46 142,-245 186.797,-236.842 237.46,-228.021 275.916,-221.408"/>
<polygon fill="orange" stroke="orange" points="133.419,-243.015 124.226,-248.281 134.696,-249.897 133.419,-243.015"/>
<text text-anchor="middle" x="199" y="-248" font-family="Helvetica,sans-Serif" font-size="10.00"> &lt; Ev3DriverName &gt;</text>
</g>
<!-- Node10 -->
<g id="node10" class="node"><title>Node10</title>
<g id="a_node10"><a xlink:href="classev3__control_1_1_string_enum.html" target="_top" xlink:title="ev3_control::StringEnum\l\&lt; Ev3PortStatus \&gt;">
<polygon fill="white" stroke="black" points="276,-147 276,-177 400,-177 400,-147 276,-147"/>
<text text-anchor="start" x="284" y="-165" font-family="Helvetica,sans-Serif" font-size="10.00">ev3_control::StringEnum</text>
<text text-anchor="middle" x="338" y="-154" font-family="Helvetica,sans-Serif" font-size="10.00">&lt; Ev3PortStatus &gt;</text>
</a>
</g>
</g>
<!-- Node3&#45;&gt;Node10 -->
<g id="edge16" class="edge"><title>Node3&#45;&gt;Node10</title>
<path fill="none" stroke="orange" stroke-dasharray="5,2" d="M91.3006,-238.936C105.834,-228.956 124.193,-217.588 142,-210 184.979,-191.686 236.392,-179.393 275.634,-171.836"/>
<polygon fill="orange" stroke="orange" points="88.9516,-236.309 82.7851,-244.924 92.9783,-242.035 88.9516,-236.309"/>
<text text-anchor="middle" x="199" y="-213" font-family="Helvetica,sans-Serif" font-size="10.00"> &lt; Ev3PortStatus &gt;</text>
</g>
<!-- Node11 -->
<g id="node11" class="node"><title>Node11</title>
<g id="a_node11"><a xlink:href="classev3__control_1_1_string_enum.html" target="_top" xlink:title="ev3_control::StringEnum\l\&lt; Ev3GyroMode \&gt;">
<polygon fill="white" stroke="black" points="276,-98 276,-128 400,-128 400,-98 276,-98"/>
<text text-anchor="start" x="284" y="-116" font-family="Helvetica,sans-Serif" font-size="10.00">ev3_control::StringEnum</text>
<text text-anchor="middle" x="338" y="-105" font-family="Helvetica,sans-Serif" font-size="10.00">&lt; Ev3GyroMode &gt;</text>
</a>
</g>
</g>
<!-- Node3&#45;&gt;Node11 -->
<g id="edge18" class="edge"><title>Node3&#45;&gt;Node11</title>
<path fill="none" stroke="orange" stroke-dasharray="5,2" d="M75.9506,-235.905C89.4434,-213.136 112.7,-179.753 142,-161 182.231,-135.252 235.248,-123.316 275.845,-117.782"/>
<polygon fill="orange" stroke="orange" points="72.8767,-234.23 70.9394,-244.646 78.9495,-237.711 72.8767,-234.23"/>
<text text-anchor="middle" x="199" y="-164" font-family="Helvetica,sans-Serif" font-size="10.00"> &lt; Ev3GyroMode &gt;</text>
</g>
<!-- Node12 -->
<g id="node12" class="node"><title>Node12</title>
<g id="a_node12"><a xlink:href="classev3__control_1_1_string_enum.html" target="_top" xlink:title="ev3_control::StringEnum\l\&lt; Ev3ColorMode \&gt;">
<polygon fill="white" stroke="black" points="276,-49 276,-79 400,-79 400,-49 276,-49"/>
<text text-anchor="start" x="284" y="-67" font-family="Helvetica,sans-Serif" font-size="10.00">ev3_control::StringEnum</text>
<text text-anchor="middle" x="338" y="-56" font-family="Helvetica,sans-Serif" font-size="10.00">&lt; Ev3ColorMode &gt;</text>
</a>
</g>
</g>
<!-- Node3&#45;&gt;Node12 -->
<g id="edge20" class="edge"><title>Node3&#45;&gt;Node12</title>
<path fill="none" stroke="orange" stroke-dasharray="5,2" d="M68.6321,-235.199C77.8193,-200.663 99.4388,-138.657 142,-106 180.19,-76.6972 234.397,-66.8331 275.968,-63.9375"/>
<polygon fill="orange" stroke="orange" points="65.219,-234.421 66.1707,-244.973 72.007,-236.131 65.219,-234.421"/>
<text text-anchor="middle" x="199" y="-109" font-family="Helvetica,sans-Serif" font-size="10.00"> &lt; Ev3ColorMode &gt;</text>
</g>
<!-- Node13 -->
<g id="node13" class="node"><title>Node13</title>
<g id="a_node13"><a xlink:href="classev3__control_1_1_string_enum.html" target="_top" xlink:title="ev3_control::StringEnum\l\&lt; Ev3InfraredMode \&gt;">
<polygon fill="white" stroke="black" points="276,-0 276,-30 400,-30 400,-0 276,-0"/>
<text text-anchor="start" x="284" y="-18" font-family="Helvetica,sans-Serif" font-size="10.00">ev3_control::StringEnum</text>
<text text-anchor="middle" x="338" y="-7" font-family="Helvetica,sans-Serif" font-size="10.00">&lt; Ev3InfraredMode &gt;</text>
</a>
</g>
</g>
<!-- Node3&#45;&gt;Node13 -->
<g id="edge22" class="edge"><title>Node3&#45;&gt;Node13</title>
<path fill="none" stroke="orange" stroke-dasharray="5,2" d="M64.778,-234.803C69.3456,-190.342 85.4853,-98.215 142,-51 178.987,-20.0991 233.839,-12.2295 275.954,-11.4422"/>
<polygon fill="orange" stroke="orange" points="61.2912,-234.5 63.8681,-244.776 68.2623,-235.136 61.2912,-234.5"/>
<text text-anchor="middle" x="199" y="-54" font-family="Helvetica,sans-Serif" font-size="10.00"> &lt; Ev3InfraredMode &gt;</text>
</g>
<!-- Node4&#45;&gt;Node1 -->
<g id="edge3" class="edge"><title>Node4&#45;&gt;Node1</title>
<path fill="none" stroke="#9a32cd" stroke-dasharray="5,2" d="M410.022,-449.322C462.424,-443.161 528.24,-432.448 550,-416 600.727,-377.657 620.717,-297.246 626.263,-269.586"/>
<polygon fill="#9a32cd" stroke="#9a32cd" points="409.612,-445.846 400.073,-450.457 410.406,-452.801 409.612,-445.846"/>
<text text-anchor="middle" x="485" y="-450" font-family="Helvetica,sans-Serif" font-size="10.00"> ev3_port_drivers_conv</text>
</g>
<!-- Node5&#45;&gt;Node1 -->
<g id="edge5" class="edge"><title>Node5&#45;&gt;Node1</title>
<path fill="none" stroke="#9a32cd" stroke-dasharray="5,2" d="M410.191,-403.688C453.445,-398.843 508.197,-387.437 550,-361 587.075,-337.553 613.46,-289.957 623.512,-269.593"/>
<polygon fill="#9a32cd" stroke="#9a32cd" points="409.613,-400.229 400.022,-404.731 410.327,-407.192 409.613,-400.229"/>
<text text-anchor="middle" x="485" y="-404" font-family="Helvetica,sans-Serif" font-size="10.00"> ev3_ultrasonic_mode_conv</text>
</g>
<!-- Node6&#45;&gt;Node1 -->
<g id="edge7" class="edge"><title>Node6&#45;&gt;Node1</title>
<path fill="none" stroke="#9a32cd" stroke-dasharray="5,2" d="M410.386,-348.09C452.18,-340.75 505.348,-328.714 550,-310 575.219,-299.431 601.341,-280.85 616.045,-269.559"/>
<polygon fill="#9a32cd" stroke="#9a32cd" points="409.561,-344.68 400.291,-349.811 410.737,-351.581 409.561,-344.68"/>
<text text-anchor="middle" x="485" y="-349" font-family="Helvetica,sans-Serif" font-size="10.00"> ev3_touch_mode_conv</text>
</g>
<!-- Node7&#45;&gt;Node1 -->
<g id="edge9" class="edge"><title>Node7&#45;&gt;Node1</title>
<path fill="none" stroke="#9a32cd" stroke-dasharray="5,2" d="M409.916,-298.12C450.902,-291.695 503.418,-283.23 550,-275 559.641,-273.297 569.935,-271.384 579.776,-269.51"/>
<polygon fill="#9a32cd" stroke="#9a32cd" points="409.362,-294.664 400.023,-299.667 410.443,-301.58 409.362,-294.664"/>
<text text-anchor="middle" x="485" y="-298" font-family="Helvetica,sans-Serif" font-size="10.00"> ev3_switch_conv</text>
</g>
<!-- Node8&#45;&gt;Node1 -->
<g id="edge11" class="edge"><title>Node8&#45;&gt;Node1</title>
<path fill="none" stroke="#9a32cd" stroke-dasharray="5,2" d="M410.409,-260C458.95,-260 522.429,-260 568.283,-260"/>
<polygon fill="#9a32cd" stroke="#9a32cd" points="410.29,-256.5 400.289,-260 410.289,-263.5 410.29,-256.5"/>
<text text-anchor="middle" x="485" y="-263" font-family="Helvetica,sans-Serif" font-size="10.00"> ev3_polarity_conv</text>
</g>
<!-- Node9&#45;&gt;Node1 -->
<g id="edge13" class="edge"><title>Node9&#45;&gt;Node1</title>
<path fill="none" stroke="#9a32cd" stroke-dasharray="5,2" d="M409.916,-221.88C450.902,-228.305 503.418,-236.77 550,-245 559.641,-246.703 569.935,-248.616 579.776,-250.49"/>
<polygon fill="#9a32cd" stroke="#9a32cd" points="410.443,-218.42 400.023,-220.333 409.362,-225.336 410.443,-218.42"/>
<text text-anchor="middle" x="485" y="-248" font-family="Helvetica,sans-Serif" font-size="10.00"> ev3_driver_name_conv</text>
</g>
<!-- Node10&#45;&gt;Node1 -->
<g id="edge15" class="edge"><title>Node10&#45;&gt;Node1</title>
<path fill="none" stroke="#9a32cd" stroke-dasharray="5,2" d="M410.451,-171.355C452.267,-178.422 505.435,-190.204 550,-209 575.492,-219.752 601.731,-238.895 616.344,-250.422"/>
<polygon fill="#9a32cd" stroke="#9a32cd" points="410.784,-167.863 400.35,-169.701 409.653,-174.771 410.784,-167.863"/>
<text text-anchor="middle" x="485" y="-212" font-family="Helvetica,sans-Serif" font-size="10.00"> ev3_port_status_conv</text>
</g>
<!-- Node11&#45;&gt;Node1 -->
<g id="edge17" class="edge"><title>Node11&#45;&gt;Node1</title>
<path fill="none" stroke="#9a32cd" stroke-dasharray="5,2" d="M410.222,-115.85C453.487,-120.443 508.241,-131.584 550,-158 587.302,-181.597 613.563,-229.709 623.547,-250.299"/>
<polygon fill="#9a32cd" stroke="#9a32cd" points="410.341,-112.345 400.05,-114.867 409.667,-119.312 410.341,-112.345"/>
<text text-anchor="middle" x="485" y="-161" font-family="Helvetica,sans-Serif" font-size="10.00"> ev3_gyro_mode_conv</text>
</g>
<!-- Node12&#45;&gt;Node1 -->
<g id="edge19" class="edge"><title>Node12&#45;&gt;Node1</title>
<path fill="none" stroke="#9a32cd" stroke-dasharray="5,2" d="M410.339,-61.2455C454.546,-63.0554 510.271,-72.0971 550,-102 601.327,-140.632 620.933,-222.204 626.321,-250.271"/>
<polygon fill="#9a32cd" stroke="#9a32cd" points="410.33,-57.7438 400.231,-60.9477 410.124,-64.7408 410.33,-57.7438"/>
<text text-anchor="middle" x="485" y="-105" font-family="Helvetica,sans-Serif" font-size="10.00"> ev3_color_mode_conv</text>
</g>
<!-- Node13&#45;&gt;Node1 -->
<g id="edge21" class="edge"><title>Node13&#45;&gt;Node1</title>
<path fill="none" stroke="#9a32cd" stroke-dasharray="5,2" d="M410.358,-8.06689C455.089,-7.58639 511.384,-14.5435 550,-46 616.53,-100.195 626.316,-216.276 627.753,-250.387"/>
<polygon fill="#9a32cd" stroke="#9a32cd" points="410.045,-4.57317 400.13,-8.3065 410.209,-11.5713 410.045,-4.57317"/>
<text text-anchor="middle" x="485" y="-49" font-family="Helvetica,sans-Serif" font-size="10.00"> ev3_infrared_mode_conv</text>
</g>
</g>
</svg>
        <g id="navigator" transform="translate(0 0)" fill="#404254">
                <rect fill="#f2f5e9" fill-opacity="0.5" stroke="#606060" stroke-width=".5" x="0" y="0" width="60" height="60"/>
                <use id="zoomplus" xlink:href="#zoomPlus" x="17" y="9" onmousedown="handleZoom(evt,'in')"/>
                <use id="zoomminus" xlink:href="#zoomMin" x="42" y="9" onmousedown="handleZoom(evt,'out')"/>
                <use id="reset" xlink:href="#resetDef" x="30" y="36" onmousedown="handleReset()"/>
                <g id="arrowUp" xlink:href="#dirArrow" transform="translate(30 24)" onmousedown="handlePan(0,-1)">
                  <use xlink:href="#rim" fill="#404040">
                        <set attributeName="fill" to="#808080" begin="arrowUp.mouseover" end="arrowUp.mouseout"/>
                  </use>
                  <path fill="none" stroke="white" stroke-width="1.5" d="M0,-3.0v7 M-2.5,-0.5L0,-3.0L2.5,-0.5"/>
                </g>
                <g id="arrowRight" xlink:href="#dirArrow" transform="rotate(90) translate(36 -43)" onmousedown="handlePan(1,0)">
                  <use xlink:href="#rim" fill="#404040">
                        <set attributeName="fill" to="#808080" begin="arrowRight.mouseover" end="arrowRight.mouseout"/>
                  </use>
                  <path fill="none" stroke="white" stroke-width="1.5" d="M0,-3.0v7 M-2.5,-0.5L0,-3.0L2.5,-0.5"/>
                </g>
                <g id="arrowDown" xlink:href="#dirArrow" transform="rotate(180) translate(-30 -48)" onmousedown="handlePan(0,1)">
                  <use xlink:href="#rim" fill="#404040">
                        <set attributeName="fill" to="#808080" begin="arrowDown.mouseover" end="arrowDown.mouseout"/>
                  </use>
                  <path fill="none" stroke="white" stroke-width="1.5" d="M0,-3.0v7 M-2.5,-0.5L0,-3.0L2.5,-0.5"/>
                </g>
                <g id="arrowLeft" xlink:href="#dirArrow" transform="rotate(270) translate(-36 17)" onmousedown="handlePan(-1,0)">
                  <use xlink:href="#rim" fill="#404040">
                        <set attributeName="fill" to="#808080" begin="arrowLeft.mouseover" end="arrowLeft.mouseout"/>
                  </use>
                  <path fill="none" stroke="white" stroke-width="1.5" d="M0,-3.0v7 M-2.5,-0.5L0,-3.0L2.5,-0.5"/>
                </g>
        </g>
        <svg viewBox="0 0 15 15" width="100%" height="30px" preserveAspectRatio="xMaxYMin meet">
         <g id="arrow_out" transform="scale(0.3 0.3)">
          <a xlink:href="classev3__control_1_1_ev3_strings__coll__graph_org.svg" target="_base">
           <rect id="button" ry="5" rx="5" y="6" x="6" height="38" width="38"
                fill="#f2f5e9" fill-opacity="0.5" stroke="#606060" stroke-width="1.0"/>
           <path id="arrow"
             d="M 11.500037,31.436501 C 11.940474,20.09759 22.043105,11.32322 32.158766,21.979434 L 37.068811,17.246167 C 37.068811,17.246167 37.088388,32 37.088388,32 L 22.160133,31.978069 C 22.160133,31.978069 26.997745,27.140456 26.997745,27.140456 C 18.528582,18.264221 13.291696,25.230495 11.500037,31.436501 z"
             style="fill:#404040;"/>
          </a>
         </g>
        </svg>
</svg>
