<?xml version="1.0" encoding="UTF-8" standalone="no"?>
<!DOCTYPE svg PUBLIC "-//W3C//DTD SVG 1.1//EN"
 "http://www.w3.org/Graphics/SVG/1.1/DTD/svg11.dtd">
<!-- Generated by graphviz version 2.36.0 (20140111.2315)
 -->
<!-- Title: ev3_control::Ev3JointSettings Pages: 1 -->
<svg width="430pt" height="396pt"
 viewBox="0.00 0.00 430.00 396.00" xmlns="http://www.w3.org/2000/svg" xmlns:xlink="http://www.w3.org/1999/xlink">
<g id="graph0" class="graph" transform="scale(1 1) rotate(0) translate(4 392)">
<title>ev3_control::Ev3JointSettings</title>
<polygon fill="white" stroke="none" points="-4,4 -4,-392 426,-392 426,4 -4,4"/>
<!-- Node1 -->
<g id="node1" class="node"><title>Node1</title>
<polygon fill="#bfbfbf" stroke="black" points="58.5,-0.5 58.5,-19.5 205.5,-19.5 205.5,-0.5 58.5,-0.5"/>
<text text-anchor="middle" x="132" y="-7.5" font-family="Helvetica,sans-Serif" font-size="10.00">ev3_control::Ev3JointSettings</text>
</g>
<!-- Node2 -->
<g id="node2" class="node"><title>Node2</title>
<g id="a_node2"><a xlink:href="classev3__control_1_1_ev3_joint_settings_1_1_ev3_hw_settings.html" target="_top" xlink:title="ev3_control::Ev3JointSettings\l::Ev3HwSettings">
<polygon fill="white" stroke="black" points="-0.5,-69 -0.5,-99 146.5,-99 146.5,-69 -0.5,-69"/>
<text text-anchor="start" x="7.5" y="-87" font-family="Helvetica,sans-Serif" font-size="10.00">ev3_control::Ev3JointSettings</text>
<text text-anchor="middle" x="73" y="-76" font-family="Helvetica,sans-Serif" font-size="10.00">::Ev3HwSettings</text>
</a>
</g>
</g>
<!-- Node2&#45;&gt;Node1 -->
<g id="edge1" class="edge"><title>Node2&#45;&gt;Node1</title>
<path fill="none" stroke="#9a32cd" stroke-dasharray="5,2" d="M91.3025,-60.6647C102.632,-46.8394 116.548,-29.8568 124.823,-19.7589"/>
<polygon fill="#9a32cd" stroke="#9a32cd" points="88.2876,-58.8219 84.6565,-68.7751 93.7019,-63.2587 88.2876,-58.8219"/>
<text text-anchor="middle" x="136" y="-41.5" font-family="Helvetica,sans-Serif" font-size="10.00"> ev3settings</text>
</g>
<!-- Node3 -->
<g id="node3" class="node"><title>Node3</title>
<g id="a_node3"><a xlink:href="classev3__control_1_1_h4_r_ev3_motor.html" target="_top" xlink:title="ev3_control::H4REv3Motor">
<polygon fill="white" stroke="black" points="164.5,-74.5 164.5,-93.5 299.5,-93.5 299.5,-74.5 164.5,-74.5"/>
<text text-anchor="middle" x="232" y="-81.5" font-family="Helvetica,sans-Serif" font-size="10.00">ev3_control::H4REv3Motor</text>
</a>
</g>
</g>
<!-- Node3&#45;&gt;Node1 -->
<g id="edge2" class="edge"><title>Node3&#45;&gt;Node1</title>
<path fill="none" stroke="#9a32cd" stroke-dasharray="5,2" d="M211.848,-68.4903C191.452,-53.8054 160.605,-31.5955 143.849,-19.531"/>
<polygon fill="#9a32cd" stroke="#9a32cd" points="209.976,-71.4552 220.136,-74.4579 214.066,-65.7745 209.976,-71.4552"/>
<text text-anchor="middle" x="194" y="-41.5" font-family="Helvetica,sans-Serif" font-size="10.00"> port</text>
</g>
<!-- Node4 -->
<g id="node4" class="node"><title>Node4</title>
<g id="a_node4"><a xlink:href="classev3__control_1_1_h4_r_ev3_port.html" target="_top" xlink:title="ev3_control::H4REv3Port">
<polygon fill="white" stroke="black" points="168,-138.5 168,-157.5 296,-157.5 296,-138.5 168,-138.5"/>
<text text-anchor="middle" x="232" y="-145.5" font-family="Helvetica,sans-Serif" font-size="10.00">ev3_control::H4REv3Port</text>
</a>
</g>
</g>
<!-- Node4&#45;&gt;Node3 -->
<g id="edge3" class="edge"><title>Node4&#45;&gt;Node3</title>
<path fill="none" stroke="midnightblue" d="M232,-128.037C232,-116.53 232,-102.403 232,-93.5476"/>
<polygon fill="midnightblue" stroke="midnightblue" points="228.5,-128.379 232,-138.379 235.5,-128.379 228.5,-128.379"/>
</g>
<!-- Node5 -->
<g id="node5" class="node"><title>Node5</title>
<g id="a_node5"><a xlink:href="classev3__control_1_1_h4_r_ev3_port_1_1_open_file.html" target="_top" xlink:title="ev3_control::H4REv3Port\l::OpenFile">
<polygon fill="white" stroke="black" points="294,-208 294,-238 422,-238 422,-208 294,-208"/>
<text text-anchor="start" x="302" y="-226" font-family="Helvetica,sans-Serif" font-size="10.00">ev3_control::H4REv3Port</text>
<text text-anchor="middle" x="358" y="-215" font-family="Helvetica,sans-Serif" font-size="10.00">::OpenFile</text>
</a>
</g>
</g>
<!-- Node5&#45;&gt;Node4 -->
<g id="edge4" class="edge"><title>Node5&#45;&gt;Node4</title>
<path fill="none" stroke="#9a32cd" stroke-dasharray="5,2" d="M324.796,-202.763C299.471,-188.09 265.8,-168.583 246.762,-157.553"/>
<polygon fill="#9a32cd" stroke="#9a32cd" points="323.299,-205.94 333.706,-207.925 326.808,-199.883 323.299,-205.94"/>
<text text-anchor="middle" x="330.5" y="-179.5" font-family="Helvetica,sans-Serif" font-size="10.00"> f_driver_name</text>
</g>
<!-- Node6 -->
<g id="node6" class="node"><title>Node6</title>
<g id="a_node6"><a xlink:href="class_fixed_buffer_1_1_fixed_buffer.html" target="_top" xlink:title="FixedBuffer::FixedBuffer\l\&lt; 256 \&gt;">
<polygon fill="white" stroke="black" points="134.5,-289 134.5,-319 257.5,-319 257.5,-289 134.5,-289"/>
<text text-anchor="start" x="142.5" y="-307" font-family="Helvetica,sans-Serif" font-size="10.00">FixedBuffer::FixedBuffer</text>
<text text-anchor="middle" x="196" y="-296" font-family="Helvetica,sans-Serif" font-size="10.00">&lt; 256 &gt;</text>
</a>
</g>
</g>
<!-- Node6&#45;&gt;Node4 -->
<g id="edge7" class="edge"><title>Node6&#45;&gt;Node4</title>
<path fill="none" stroke="#9a32cd" stroke-dasharray="5,2" d="M189.184,-278.906C184.702,-258.874 181.001,-229.885 189,-206 195.613,-186.253 212.065,-167.876 222.594,-157.575"/>
<polygon fill="#9a32cd" stroke="#9a32cd" points="185.82,-279.886 191.612,-288.758 192.617,-278.211 185.82,-279.886"/>
<text text-anchor="start" x="189" y="-231.5" font-family="Helvetica,sans-Serif" font-size="10.00"> sys_device_directory</text>
<text text-anchor="middle" x="237" y="-220.5" font-family="Helvetica,sans-Serif" font-size="10.00">_</text>
<text text-anchor="middle" x="237" y="-209.5" font-family="Helvetica,sans-Serif" font-size="10.00">sys_port_directory_</text>
</g>
<!-- Node6&#45;&gt;Node5 -->
<g id="edge5" class="edge"><title>Node6&#45;&gt;Node5</title>
<path fill="none" stroke="#9a32cd" stroke-dasharray="5,2" d="M234.028,-284.456C263.172,-270.243 302.763,-250.937 329.288,-238.001"/>
<polygon fill="#9a32cd" stroke="#9a32cd" points="232.416,-281.347 224.962,-288.876 235.485,-287.639 232.416,-281.347"/>
<text text-anchor="middle" x="303.5" y="-261.5" font-family="Helvetica,sans-Serif" font-size="10.00"> fullpath</text>
</g>
<!-- Node7 -->
<g id="node7" class="node"><title>Node7</title>
<g id="a_node7"><a xlink:href="class_fixed_buffer_1_1_fixed_buffer.html" target="_top" xlink:title="A fixed&#45;size string buffer (typically stack&#45;allocated). ">
<polygon fill="white" stroke="black" points="121.5,-368.5 121.5,-387.5 270.5,-387.5 270.5,-368.5 121.5,-368.5"/>
<text text-anchor="middle" x="196" y="-375.5" font-family="Helvetica,sans-Serif" font-size="10.00">FixedBuffer::FixedBuffer&lt; N &gt;</text>
</a>
</g>
</g>
<!-- Node7&#45;&gt;Node6 -->
<g id="edge6" class="edge"><title>Node7&#45;&gt;Node6</title>
<path fill="none" stroke="orange" stroke-dasharray="5,2" d="M196,-358.085C196,-345.915 196,-330.354 196,-319.232"/>
<polygon fill="orange" stroke="orange" points="192.5,-358.458 196,-368.458 199.5,-358.458 192.5,-358.458"/>
<text text-anchor="middle" x="214.5" y="-341.5" font-family="Helvetica,sans-Serif" font-size="10.00"> &lt; 256 &gt;</text>
</g>
</g>
</svg>
