<?xml version="1.0" encoding="UTF-8" standalone="no"?>
<!DOCTYPE svg PUBLIC "-//W3C//DTD SVG 1.1//EN"
 "http://www.w3.org/Graphics/SVG/1.1/DTD/svg11.dtd">
<!-- Generated by graphviz version 2.36.0 (20140111.2315)
 -->
<!-- Title: FixedBuffer::FixedBuffer&lt; N &gt; Pages: 1 -->
<svg width="156pt" height="108pt"
 viewBox="0.00 0.00 156.00 108.00" xmlns="http://www.w3.org/2000/svg" xmlns:xlink="http://www.w3.org/1999/xlink">
<g id="graph0" class="graph" transform="scale(1 1) rotate(0) translate(4 104)">
<title>FixedBuffer::FixedBuffer&lt; N &gt;</title>
<polygon fill="white" stroke="none" points="-4,4 -4,-104 152,-104 152,4 -4,4"/>
<!-- Node1 -->
<g id="node1" class="node"><title>Node1</title>
<polygon fill="#bfbfbf" stroke="black" points="-0.5,-80.5 -0.5,-99.5 148.5,-99.5 148.5,-80.5 -0.5,-80.5"/>
<text text-anchor="middle" x="74" y="-87.5" font-family="Helvetica,sans-Serif" font-size="10.00">FixedBuffer::FixedBuffer&lt; N &gt;</text>
</g>
<!-- Node2 -->
<g id="node2" class="node"><title>Node2</title>
<g id="a_node2"><a xlink:href="class_fixed_buffer_1_1_fixed_buffer.html" target="_top" xlink:title="FixedBuffer::FixedBuffer\l\&lt; 256 \&gt;">
<polygon fill="white" stroke="black" points="12.5,-1 12.5,-31 135.5,-31 135.5,-1 12.5,-1"/>
<text text-anchor="start" x="20.5" y="-19" font-family="Helvetica,sans-Serif" font-size="10.00">FixedBuffer::FixedBuffer</text>
<text text-anchor="middle" x="74" y="-8" font-family="Helvetica,sans-Serif" font-size="10.00">&lt; 256 &gt;</text>
</a>
</g>
</g>
<!-- Node1&#45;&gt;Node2 -->
<g id="edge1" class="edge"><title>Node1&#45;&gt;Node2</title>
<path fill="none" stroke="orange" stroke-dasharray="5,2" d="M74,-70.0846C74,-57.9148 74,-42.3538 74,-31.2316"/>
<polygon fill="orange" stroke="orange" points="70.5001,-70.4579 74,-80.4579 77.5001,-70.4579 70.5001,-70.4579"/>
<text text-anchor="middle" x="92.5" y="-53.5" font-family="Helvetica,sans-Serif" font-size="10.00"> &lt; 256 &gt;</text>
</g>
</g>
</svg>
