<?xml version="1.0" encoding="UTF-8" standalone="no"?>
<!DOCTYPE svg PUBLIC "-//W3C//DTD SVG 1.1//EN"
 "http://www.w3.org/Graphics/SVG/1.1/DTD/svg11.dtd">
<!-- Generated by graphviz version 2.36.0 (20140111.2315)
 -->
<!-- Title: ev3_control::H4REv3SensorSpecific&lt; MODE_ENUM, MODE_CONV, DRV &gt; Pages: 1 -->
<svg width="308pt" height="406pt"
 viewBox="0.00 0.00 308.00 406.00" xmlns="http://www.w3.org/2000/svg" xmlns:xlink="http://www.w3.org/1999/xlink">
<g id="graph0" class="graph" transform="scale(1 1) rotate(0) translate(4 402)">
<title>ev3_control::H4REv3SensorSpecific&lt; MODE_ENUM, MODE_CONV, DRV &gt;</title>
<polygon fill="white" stroke="none" points="-4,4 -4,-402 304,-402 304,4 -4,4"/>
<!-- Node1 -->
<g id="node1" class="node"><title>Node1</title>
<polygon fill="#bfbfbf" stroke="black" points="29,-0.5 29,-41.5 191,-41.5 191,-0.5 29,-0.5"/>
<text text-anchor="start" x="37" y="-29.5" font-family="Helvetica,sans-Serif" font-size="10.00">ev3_control::H4REv3Sensor</text>
<text text-anchor="start" x="37" y="-18.5" font-family="Helvetica,sans-Serif" font-size="10.00">Specific&lt; MODE_ENUM, MODE</text>
<text text-anchor="middle" x="110" y="-7.5" font-family="Helvetica,sans-Serif" font-size="10.00">_CONV, DRV &gt;</text>
</g>
<!-- Node2 -->
<g id="node2" class="node"><title>Node2</title>
<g id="a_node2"><a xlink:href="classev3__control_1_1_h4_r_ev3_sensor.html" target="_top" xlink:title="ev3_control::H4REv3Sensor">
<polygon fill="white" stroke="black" points="39.5,-90.5 39.5,-109.5 180.5,-109.5 180.5,-90.5 39.5,-90.5"/>
<text text-anchor="middle" x="110" y="-97.5" font-family="Helvetica,sans-Serif" font-size="10.00">ev3_control::H4REv3Sensor</text>
</a>
</g>
</g>
<!-- Node2&#45;&gt;Node1 -->
<g id="edge1" class="edge"><title>Node2&#45;&gt;Node1</title>
<path fill="none" stroke="#9a32cd" stroke-dasharray="5,2" d="M110,-80.1487C110,-68.503 110,-53.5806 110,-41.7685"/>
<polygon fill="#9a32cd" stroke="#9a32cd" points="106.5,-80.4654 110,-90.4655 113.5,-80.4655 106.5,-80.4654"/>
<text text-anchor="middle" x="129" y="-63.5" font-family="Helvetica,sans-Serif" font-size="10.00"> sensor_</text>
</g>
<!-- Node3 -->
<g id="node3" class="node"><title>Node3</title>
<g id="a_node3"><a xlink:href="classev3__control_1_1_h4_r_ev3_port.html" target="_top" xlink:title="ev3_control::H4REv3Port">
<polygon fill="white" stroke="black" points="46,-148.5 46,-167.5 174,-167.5 174,-148.5 46,-148.5"/>
<text text-anchor="middle" x="110" y="-155.5" font-family="Helvetica,sans-Serif" font-size="10.00">ev3_control::H4REv3Port</text>
</a>
</g>
</g>
<!-- Node3&#45;&gt;Node2 -->
<g id="edge2" class="edge"><title>Node3&#45;&gt;Node2</title>
<path fill="none" stroke="midnightblue" d="M110,-137.953C110,-128.287 110,-117.031 110,-109.505"/>
<polygon fill="midnightblue" stroke="midnightblue" points="106.5,-138.25 110,-148.25 113.5,-138.25 106.5,-138.25"/>
</g>
<!-- Node4 -->
<g id="node4" class="node"><title>Node4</title>
<g id="a_node4"><a xlink:href="classev3__control_1_1_h4_r_ev3_port_1_1_open_file.html" target="_top" xlink:title="ev3_control::H4REv3Port\l::OpenFile">
<polygon fill="white" stroke="black" points="172,-218 172,-248 300,-248 300,-218 172,-218"/>
<text text-anchor="start" x="180" y="-236" font-family="Helvetica,sans-Serif" font-size="10.00">ev3_control::H4REv3Port</text>
<text text-anchor="middle" x="236" y="-225" font-family="Helvetica,sans-Serif" font-size="10.00">::OpenFile</text>
</a>
</g>
</g>
<!-- Node4&#45;&gt;Node3 -->
<g id="edge3" class="edge"><title>Node4&#45;&gt;Node3</title>
<path fill="none" stroke="#9a32cd" stroke-dasharray="5,2" d="M202.796,-212.763C177.471,-198.09 143.8,-178.583 124.762,-167.553"/>
<polygon fill="#9a32cd" stroke="#9a32cd" points="201.299,-215.94 211.706,-217.925 204.808,-209.883 201.299,-215.94"/>
<text text-anchor="middle" x="208.5" y="-189.5" font-family="Helvetica,sans-Serif" font-size="10.00"> f_driver_name</text>
</g>
<!-- Node5 -->
<g id="node5" class="node"><title>Node5</title>
<g id="a_node5"><a xlink:href="class_fixed_buffer_1_1_fixed_buffer.html" target="_top" xlink:title="FixedBuffer::FixedBuffer\l\&lt; 256 \&gt;">
<polygon fill="white" stroke="black" points="12.5,-299 12.5,-329 135.5,-329 135.5,-299 12.5,-299"/>
<text text-anchor="start" x="20.5" y="-317" font-family="Helvetica,sans-Serif" font-size="10.00">FixedBuffer::FixedBuffer</text>
<text text-anchor="middle" x="74" y="-306" font-family="Helvetica,sans-Serif" font-size="10.00">&lt; 256 &gt;</text>
</a>
</g>
</g>
<!-- Node5&#45;&gt;Node3 -->
<g id="edge6" class="edge"><title>Node5&#45;&gt;Node3</title>
<path fill="none" stroke="#9a32cd" stroke-dasharray="5,2" d="M67.1836,-288.906C62.7024,-268.874 59.0011,-239.885 67,-216 73.6131,-196.253 90.0651,-177.876 100.594,-167.575"/>
<polygon fill="#9a32cd" stroke="#9a32cd" points="63.8202,-289.886 69.6119,-298.758 70.6168,-288.211 63.8202,-289.886"/>
<text text-anchor="start" x="67" y="-241.5" font-family="Helvetica,sans-Serif" font-size="10.00"> sys_device_directory</text>
<text text-anchor="middle" x="115" y="-230.5" font-family="Helvetica,sans-Serif" font-size="10.00">_</text>
<text text-anchor="middle" x="115" y="-219.5" font-family="Helvetica,sans-Serif" font-size="10.00">sys_port_directory_</text>
</g>
<!-- Node5&#45;&gt;Node4 -->
<g id="edge4" class="edge"><title>Node5&#45;&gt;Node4</title>
<path fill="none" stroke="#9a32cd" stroke-dasharray="5,2" d="M112.028,-294.456C141.172,-280.243 180.763,-260.937 207.288,-248.001"/>
<polygon fill="#9a32cd" stroke="#9a32cd" points="110.416,-291.347 102.962,-298.876 113.485,-297.639 110.416,-291.347"/>
<text text-anchor="middle" x="181.5" y="-271.5" font-family="Helvetica,sans-Serif" font-size="10.00"> fullpath</text>
</g>
<!-- Node6 -->
<g id="node6" class="node"><title>Node6</title>
<g id="a_node6"><a xlink:href="class_fixed_buffer_1_1_fixed_buffer.html" target="_top" xlink:title="A fixed&#45;size string buffer (typically stack&#45;allocated). ">
<polygon fill="white" stroke="black" points="-0.5,-378.5 -0.5,-397.5 148.5,-397.5 148.5,-378.5 -0.5,-378.5"/>
<text text-anchor="middle" x="74" y="-385.5" font-family="Helvetica,sans-Serif" font-size="10.00">FixedBuffer::FixedBuffer&lt; N &gt;</text>
</a>
</g>
</g>
<!-- Node6&#45;&gt;Node5 -->
<g id="edge5" class="edge"><title>Node6&#45;&gt;Node5</title>
<path fill="none" stroke="orange" stroke-dasharray="5,2" d="M74,-368.085C74,-355.915 74,-340.354 74,-329.232"/>
<polygon fill="orange" stroke="orange" points="70.5001,-368.458 74,-378.458 77.5001,-368.458 70.5001,-368.458"/>
<text text-anchor="middle" x="92.5" y="-351.5" font-family="Helvetica,sans-Serif" font-size="10.00"> &lt; 256 &gt;</text>
</g>
</g>
</svg>
