<?xml version="1.0" encoding="UTF-8" standalone="no"?>
<!DOCTYPE svg PUBLIC "-//W3C//DTD SVG 1.1//EN"
 "http://www.w3.org/Graphics/SVG/1.1/DTD/svg11.dtd">
<!-- Generated by graphviz version 2.36.0 (20140111.2315)
 -->
<!-- Title: ev3_control::H4REv3Port::OpenFile Pages: 1 -->
<svg width="156pt" height="188pt"
 viewBox="0.00 0.00 156.00 188.00" xmlns="http://www.w3.org/2000/svg" xmlns:xlink="http://www.w3.org/1999/xlink">
<g id="graph0" class="graph" transform="scale(1 1) rotate(0) translate(4 184)">
<title>ev3_control::H4REv3Port::OpenFile</title>
<polygon fill="white" stroke="none" points="-4,4 -4,-184 152,-184 152,4 -4,4"/>
<!-- Node1 -->
<g id="node1" class="node"><title>Node1</title>
<polygon fill="#bfbfbf" stroke="black" points="10,-1 10,-31 138,-31 138,-1 10,-1"/>
<text text-anchor="start" x="18" y="-19" font-family="Helvetica,sans-Serif" font-size="10.00">ev3_control::H4REv3Port</text>
<text text-anchor="middle" x="74" y="-8" font-family="Helvetica,sans-Serif" font-size="10.00">::OpenFile</text>
</g>
<!-- Node2 -->
<g id="node2" class="node"><title>Node2</title>
<g id="a_node2"><a xlink:href="class_fixed_buffer_1_1_fixed_buffer.html" target="_top" xlink:title="FixedBuffer::FixedBuffer\l\&lt; 256 \&gt;">
<polygon fill="white" stroke="black" points="12.5,-81 12.5,-111 135.5,-111 135.5,-81 12.5,-81"/>
<text text-anchor="start" x="20.5" y="-99" font-family="Helvetica,sans-Serif" font-size="10.00">FixedBuffer::FixedBuffer</text>
<text text-anchor="middle" x="74" y="-88" font-family="Helvetica,sans-Serif" font-size="10.00">&lt; 256 &gt;</text>
</a>
</g>
</g>
<!-- Node2&#45;&gt;Node1 -->
<g id="edge1" class="edge"><title>Node2&#45;&gt;Node1</title>
<path fill="none" stroke="#9a32cd" stroke-dasharray="5,2" d="M74,-70.5644C74,-57.6243 74,-42.1862 74,-31.2157"/>
<polygon fill="#9a32cd" stroke="#9a32cd" points="70.5001,-70.6936 74,-80.6936 77.5001,-70.6936 70.5001,-70.6936"/>
<text text-anchor="middle" x="91.5" y="-53.5" font-family="Helvetica,sans-Serif" font-size="10.00"> fullpath</text>
</g>
<!-- Node3 -->
<g id="node3" class="node"><title>Node3</title>
<g id="a_node3"><a xlink:href="class_fixed_buffer_1_1_fixed_buffer.html" target="_top" xlink:title="A fixed&#45;size string buffer (typically stack&#45;allocated). ">
<polygon fill="white" stroke="black" points="-0.5,-160.5 -0.5,-179.5 148.5,-179.5 148.5,-160.5 -0.5,-160.5"/>
<text text-anchor="middle" x="74" y="-167.5" font-family="Helvetica,sans-Serif" font-size="10.00">FixedBuffer::FixedBuffer&lt; N &gt;</text>
</a>
</g>
</g>
<!-- Node3&#45;&gt;Node2 -->
<g id="edge2" class="edge"><title>Node3&#45;&gt;Node2</title>
<path fill="none" stroke="orange" stroke-dasharray="5,2" d="M74,-150.085C74,-137.915 74,-122.354 74,-111.232"/>
<polygon fill="orange" stroke="orange" points="70.5001,-150.458 74,-160.458 77.5001,-150.458 70.5001,-150.458"/>
<text text-anchor="middle" x="92.5" y="-133.5" font-family="Helvetica,sans-Serif" font-size="10.00"> &lt; 256 &gt;</text>
</g>
</g>
</svg>
