<?xml version="1.0" encoding="UTF-8" standalone="no"?>
<!DOCTYPE svg PUBLIC "-//W3C//DTD SVG 1.1//EN"
 "http://www.w3.org/Graphics/SVG/1.1/DTD/svg11.dtd">
<!-- Generated by graphviz version 2.36.0 (20140111.2315)
 -->
<!-- Title: ev3_control::H4REv3Port::readInt Pages: 1 -->
<svg width="308pt" height="87pt"
 viewBox="0.00 0.00 308.00 87.00" xmlns="http://www.w3.org/2000/svg" xmlns:xlink="http://www.w3.org/1999/xlink">
<g id="graph0" class="graph" transform="scale(1 1) rotate(0) translate(4 83)">
<title>ev3_control::H4REv3Port::readInt</title>
<polygon fill="white" stroke="none" points="-4,4 -4,-83 304,-83 304,4 -4,4"/>
<!-- Node1 -->
<g id="node1" class="node"><title>Node1</title>
<polygon fill="#bfbfbf" stroke="black" points="0,-24 0,-54 128,-54 128,-24 0,-24"/>
<text text-anchor="start" x="8" y="-42" font-family="Helvetica,sans-Serif" font-size="10.00">ev3_control::H4REv3Port</text>
<text text-anchor="middle" x="64" y="-31" font-family="Helvetica,sans-Serif" font-size="10.00">::readInt</text>
</g>
<!-- Node2 -->
<g id="node2" class="node"><title>Node2</title>
<g id="a_node2"><a xlink:href="classev3__control_1_1_h4_r_ev3_motor.html#a57108f29a7dead1ec6d711b959be9b2d" target="_top" xlink:title="ev3_control::H4REv3Motor\l::position">
<polygon fill="white" stroke="black" points="164.5,-49 164.5,-79 299.5,-79 299.5,-49 164.5,-49"/>
<text text-anchor="start" x="172.5" y="-67" font-family="Helvetica,sans-Serif" font-size="10.00">ev3_control::H4REv3Motor</text>
<text text-anchor="middle" x="232" y="-56" font-family="Helvetica,sans-Serif" font-size="10.00">::position</text>
</a>
</g>
</g>
<!-- Node1&#45;&gt;Node2 -->
<g id="edge1" class="edge"><title>Node1&#45;&gt;Node2</title>
<path fill="none" stroke="midnightblue" d="M138.315,-50.0415C146.981,-51.3466 155.79,-52.6732 164.357,-53.9634"/>
<polygon fill="midnightblue" stroke="midnightblue" points="138.641,-46.5511 128.231,-48.5227 137.598,-53.473 138.641,-46.5511"/>
</g>
<!-- Node3 -->
<g id="node3" class="node"><title>Node3</title>
<g id="a_node3"><a xlink:href="classev3__control_1_1_h4_r_ev3_motor.html#a230ec33aabeb0c37e0cd723a016a7067" target="_top" xlink:title="ev3_control::H4REv3Motor\l::speed">
<polygon fill="white" stroke="black" points="164.5,-0 164.5,-30 299.5,-30 299.5,-0 164.5,-0"/>
<text text-anchor="start" x="172.5" y="-18" font-family="Helvetica,sans-Serif" font-size="10.00">ev3_control::H4REv3Motor</text>
<text text-anchor="middle" x="232" y="-7" font-family="Helvetica,sans-Serif" font-size="10.00">::speed</text>
</a>
</g>
</g>
<!-- Node1&#45;&gt;Node3 -->
<g id="edge2" class="edge"><title>Node1&#45;&gt;Node3</title>
<path fill="none" stroke="midnightblue" d="M138.315,-28.4002C146.981,-27.1473 155.79,-25.8737 164.357,-24.6352"/>
<polygon fill="midnightblue" stroke="midnightblue" points="137.627,-24.9632 128.231,-29.8582 138.629,-31.8912 137.627,-24.9632"/>
</g>
</g>
</svg>
