<?xml version="1.0" encoding="UTF-8" standalone="no"?>
<!DOCTYPE svg PUBLIC "-//W3C//DTD SVG 1.1//EN"
 "http://www.w3.org/Graphics/SVG/1.1/DTD/svg11.dtd">
<!-- Generated by graphviz version 2.36.0 (20140111.2315)
 -->
<!-- Title: ev3_control::H4REv3Motor Pages: 1 -->
<svg width="308pt" height="316pt"
 viewBox="0.00 0.00 308.00 316.00" xmlns="http://www.w3.org/2000/svg" xmlns:xlink="http://www.w3.org/1999/xlink">
<g id="graph0" class="graph" transform="scale(1 1) rotate(0) translate(4 312)">
<title>ev3_control::H4REv3Motor</title>
<polygon fill="white" stroke="none" points="-4,4 -4,-312 304,-312 304,4 -4,4"/>
<!-- Node1 -->
<g id="node1" class="node"><title>Node1</title>
<polygon fill="#bfbfbf" stroke="black" points="42.5,-0.5 42.5,-19.5 177.5,-19.5 177.5,-0.5 42.5,-0.5"/>
<text text-anchor="middle" x="110" y="-7.5" font-family="Helvetica,sans-Serif" font-size="10.00">ev3_control::H4REv3Motor</text>
</g>
<!-- Node2 -->
<g id="node2" class="node"><title>Node2</title>
<g id="a_node2"><a xlink:href="classev3__control_1_1_h4_r_ev3_port.html" target="_top" xlink:title="ev3_control::H4REv3Port">
<polygon fill="white" stroke="black" points="46,-58.5 46,-77.5 174,-77.5 174,-58.5 46,-58.5"/>
<text text-anchor="middle" x="110" y="-65.5" font-family="Helvetica,sans-Serif" font-size="10.00">ev3_control::H4REv3Port</text>
</a>
</g>
</g>
<!-- Node2&#45;&gt;Node1 -->
<g id="edge1" class="edge"><title>Node2&#45;&gt;Node1</title>
<path fill="none" stroke="midnightblue" d="M110,-47.953C110,-38.2875 110,-27.0312 110,-19.5052"/>
<polygon fill="midnightblue" stroke="midnightblue" points="106.5,-48.25 110,-58.25 113.5,-48.25 106.5,-48.25"/>
</g>
<!-- Node3 -->
<g id="node3" class="node"><title>Node3</title>
<g id="a_node3"><a xlink:href="classev3__control_1_1_h4_r_ev3_port_1_1_open_file.html" target="_top" xlink:title="ev3_control::H4REv3Port\l::OpenFile">
<polygon fill="white" stroke="black" points="172,-128 172,-158 300,-158 300,-128 172,-128"/>
<text text-anchor="start" x="180" y="-146" font-family="Helvetica,sans-Serif" font-size="10.00">ev3_control::H4REv3Port</text>
<text text-anchor="middle" x="236" y="-135" font-family="Helvetica,sans-Serif" font-size="10.00">::OpenFile</text>
</a>
</g>
</g>
<!-- Node3&#45;&gt;Node2 -->
<g id="edge2" class="edge"><title>Node3&#45;&gt;Node2</title>
<path fill="none" stroke="#9a32cd" stroke-dasharray="5,2" d="M202.796,-122.763C177.471,-108.09 143.8,-88.5828 124.762,-77.5528"/>
<polygon fill="#9a32cd" stroke="#9a32cd" points="201.299,-125.94 211.706,-127.925 204.808,-119.883 201.299,-125.94"/>
<text text-anchor="middle" x="208.5" y="-99.5" font-family="Helvetica,sans-Serif" font-size="10.00"> f_driver_name</text>
</g>
<!-- Node4 -->
<g id="node4" class="node"><title>Node4</title>
<g id="a_node4"><a xlink:href="class_fixed_buffer_1_1_fixed_buffer.html" target="_top" xlink:title="FixedBuffer::FixedBuffer\l\&lt; 256 \&gt;">
<polygon fill="white" stroke="black" points="12.5,-209 12.5,-239 135.5,-239 135.5,-209 12.5,-209"/>
<text text-anchor="start" x="20.5" y="-227" font-family="Helvetica,sans-Serif" font-size="10.00">FixedBuffer::FixedBuffer</text>
<text text-anchor="middle" x="74" y="-216" font-family="Helvetica,sans-Serif" font-size="10.00">&lt; 256 &gt;</text>
</a>
</g>
</g>
<!-- Node4&#45;&gt;Node2 -->
<g id="edge5" class="edge"><title>Node4&#45;&gt;Node2</title>
<path fill="none" stroke="#9a32cd" stroke-dasharray="5,2" d="M67.1836,-198.906C62.7024,-178.874 59.0011,-149.885 67,-126 73.6131,-106.253 90.0651,-87.876 100.594,-77.5753"/>
<polygon fill="#9a32cd" stroke="#9a32cd" points="63.8202,-199.886 69.6119,-208.758 70.6168,-198.211 63.8202,-199.886"/>
<text text-anchor="start" x="67" y="-151.5" font-family="Helvetica,sans-Serif" font-size="10.00"> sys_device_directory</text>
<text text-anchor="middle" x="115" y="-140.5" font-family="Helvetica,sans-Serif" font-size="10.00">_</text>
<text text-anchor="middle" x="115" y="-129.5" font-family="Helvetica,sans-Serif" font-size="10.00">sys_port_directory_</text>
</g>
<!-- Node4&#45;&gt;Node3 -->
<g id="edge3" class="edge"><title>Node4&#45;&gt;Node3</title>
<path fill="none" stroke="#9a32cd" stroke-dasharray="5,2" d="M112.028,-204.456C141.172,-190.243 180.763,-170.937 207.288,-158.001"/>
<polygon fill="#9a32cd" stroke="#9a32cd" points="110.416,-201.347 102.962,-208.876 113.485,-207.639 110.416,-201.347"/>
<text text-anchor="middle" x="181.5" y="-181.5" font-family="Helvetica,sans-Serif" font-size="10.00"> fullpath</text>
</g>
<!-- Node5 -->
<g id="node5" class="node"><title>Node5</title>
<g id="a_node5"><a xlink:href="class_fixed_buffer_1_1_fixed_buffer.html" target="_top" xlink:title="A fixed&#45;size string buffer (typically stack&#45;allocated). ">
<polygon fill="white" stroke="black" points="-0.5,-288.5 -0.5,-307.5 148.5,-307.5 148.5,-288.5 -0.5,-288.5"/>
<text text-anchor="middle" x="74" y="-295.5" font-family="Helvetica,sans-Serif" font-size="10.00">FixedBuffer::FixedBuffer&lt; N &gt;</text>
</a>
</g>
</g>
<!-- Node5&#45;&gt;Node4 -->
<g id="edge4" class="edge"><title>Node5&#45;&gt;Node4</title>
<path fill="none" stroke="orange" stroke-dasharray="5,2" d="M74,-278.085C74,-265.915 74,-250.354 74,-239.232"/>
<polygon fill="orange" stroke="orange" points="70.5001,-278.458 74,-288.458 77.5001,-278.458 70.5001,-278.458"/>
<text text-anchor="middle" x="92.5" y="-261.5" font-family="Helvetica,sans-Serif" font-size="10.00"> &lt; 256 &gt;</text>
</g>
</g>
</svg>
