<?xml version="1.0" encoding="UTF-8" standalone="no"?>
<!DOCTYPE svg PUBLIC "-//W3C//DTD SVG 1.1//EN"
 "http://www.w3.org/Graphics/SVG/1.1/DTD/svg11.dtd">
<!-- Generated by graphviz version 2.36.0 (20140111.2315)
 -->
<!-- Title: ev3_control::H4REv3Port Pages: 1 -->
<svg width="301pt" height="84pt"
 viewBox="0.00 0.00 301.00 84.00" xmlns="http://www.w3.org/2000/svg" xmlns:xlink="http://www.w3.org/1999/xlink">
<g id="graph0" class="graph" transform="scale(1 1) rotate(0) translate(4 80)">
<title>ev3_control::H4REv3Port</title>
<polygon fill="white" stroke="none" points="-4,4 -4,-80 297,-80 297,4 -4,4"/>
<!-- Node1 -->
<g id="node1" class="node"><title>Node1</title>
<polygon fill="#bfbfbf" stroke="black" points="81,-56.5 81,-75.5 209,-75.5 209,-56.5 81,-56.5"/>
<text text-anchor="middle" x="145" y="-63.5" font-family="Helvetica,sans-Serif" font-size="10.00">ev3_control::H4REv3Port</text>
</g>
<!-- Node2 -->
<g id="node2" class="node"><title>Node2</title>
<g id="a_node2"><a xlink:href="classev3__control_1_1_h4_r_ev3_motor.html" target="_top" xlink:title="ev3_control::H4REv3Motor">
<polygon fill="white" stroke="black" points="-0.5,-0.5 -0.5,-19.5 134.5,-19.5 134.5,-0.5 -0.5,-0.5"/>
<text text-anchor="middle" x="67" y="-7.5" font-family="Helvetica,sans-Serif" font-size="10.00">ev3_control::H4REv3Motor</text>
</a>
</g>
</g>
<!-- Node1&#45;&gt;Node2 -->
<g id="edge1" class="edge"><title>Node1&#45;&gt;Node2</title>
<path fill="none" stroke="midnightblue" d="M124.232,-50.6221C109.983,-40.7574 91.5438,-27.9919 79.5009,-19.6545"/>
<polygon fill="midnightblue" stroke="midnightblue" points="122.254,-53.5095 132.468,-56.324 126.238,-47.7541 122.254,-53.5095"/>
</g>
<!-- Node3 -->
<g id="node3" class="node"><title>Node3</title>
<g id="a_node3"><a xlink:href="classev3__control_1_1_h4_r_ev3_sensor.html" target="_top" xlink:title="ev3_control::H4REv3Sensor">
<polygon fill="white" stroke="black" points="152.5,-0.5 152.5,-19.5 293.5,-19.5 293.5,-0.5 152.5,-0.5"/>
<text text-anchor="middle" x="223" y="-7.5" font-family="Helvetica,sans-Serif" font-size="10.00">ev3_control::H4REv3Sensor</text>
</a>
</g>
</g>
<!-- Node1&#45;&gt;Node3 -->
<g id="edge2" class="edge"><title>Node1&#45;&gt;Node3</title>
<path fill="none" stroke="midnightblue" d="M165.768,-50.6221C180.017,-40.7574 198.456,-27.9919 210.499,-19.6545"/>
<polygon fill="midnightblue" stroke="midnightblue" points="163.762,-47.7541 157.532,-56.324 167.746,-53.5095 163.762,-47.7541"/>
</g>
</g>
</svg>
