<?xml version="1.0" encoding="UTF-8" standalone="no"?>
<!DOCTYPE svg PUBLIC "-//W3C//DTD SVG 1.1//EN"
 "http://www.w3.org/Graphics/SVG/1.1/DTD/svg11.dtd">
<!-- Generated by graphviz version 2.36.0 (20140111.2315)
 -->
<!-- Title: /data/Daten/Entwicklung/ros_workspaces/h4r_ev3_ws/src/h4r_ev3/h4r_ev3_launch Pages: 1 -->
<svg width="286pt" height="111pt"
 viewBox="0.00 0.00 286.00 111.00" xmlns="http://www.w3.org/2000/svg" xmlns:xlink="http://www.w3.org/1999/xlink">
<g id="graph0" class="graph" transform="scale(1 1) rotate(0) translate(4 107)">
<title>/data/Daten/Entwicklung/ros_workspaces/h4r_ev3_ws/src/h4r_ev3/h4r_ev3_launch</title>
<polygon fill="white" stroke="none" points="-4,4 -4,-107 282,-107 282,4 -4,4"/>
<g id="clust1" class="cluster"><title>clusterdir_6ca498831db44920d132830f5f9e563a</title>
<g id="a_clust1"><a xlink:href="dir_6ca498831db44920d132830f5f9e563a.html" target="_top" xlink:title="h4r_ev3">
<polygon fill="#ddddee" stroke="black" points="8,-8 8,-95 270,-95 270,-8 8,-8"/>
<text text-anchor="middle" x="139" y="-83" font-family="Helvetica,sans-Serif" font-size="10.00">h4r_ev3</text>
</a>
</g>
</g>
<g id="clust2" class="cluster"><title>clusterdir_2935a2999785624f80599a29a28eb4ad</title>
<g id="a_clust2"><a xlink:href="dir_2935a2999785624f80599a29a28eb4ad.html" target="_top">
<polygon fill="#eeeeff" stroke="black" points="16,-16 16,-68 262,-68 262,-16 16,-16"/>
</a>
</g>
</g>
<!-- dir_2935a2999785624f80599a29a28eb4ad -->
<g id="node1" class="node"><title>dir_2935a2999785624f80599a29a28eb4ad</title>
<text text-anchor="middle" x="211" y="-39.5" font-family="Helvetica,sans-Serif" font-size="10.00">h4r_ev3_launch</text>
</g>
<!-- dir_a21790d649b850102d8ae363e7bebacd -->
<g id="node2" class="node"><title>dir_a21790d649b850102d8ae363e7bebacd</title>
<g id="a_node2"><a xlink:href="dir_a21790d649b850102d8ae363e7bebacd.html" target="_top" xlink:title="config">
<polygon fill="white" stroke="black" points="150,-60 96,-60 96,-24 150,-24 150,-60"/>
<text text-anchor="middle" x="123" y="-39.5" font-family="Helvetica,sans-Serif" font-size="10.00">config</text>
</a>
</g>
</g>
<!-- dir_0b11fabccd993a81baf0707a56cb1a09 -->
<g id="node3" class="node"><title>dir_0b11fabccd993a81baf0707a56cb1a09</title>
<g id="a_node3"><a xlink:href="dir_0b11fabccd993a81baf0707a56cb1a09.html" target="_top" xlink:title="launch">
<polygon fill="white" stroke="black" points="78,-60 24,-60 24,-24 78,-24 78,-60"/>
<text text-anchor="middle" x="51" y="-39.5" font-family="Helvetica,sans-Serif" font-size="10.00">launch</text>
</a>
</g>
</g>
</g>
</svg>
