<?xml version="1.0" encoding="UTF-8" standalone="no"?>
<!DOCTYPE svg PUBLIC "-//W3C//DTD SVG 1.1//EN"
 "http://www.w3.org/Graphics/SVG/1.1/DTD/svg11.dtd">
<!-- Generated by graphviz version 2.36.0 (20140111.2315)
 -->
<!-- Title: /data/Daten/Entwicklung/ros_workspaces/h4r_ev3_ws/src/h4r_ev3 Pages: 1 -->
<svg width="430pt" height="111pt"
 viewBox="0.00 0.00 430.00 111.00" xmlns="http://www.w3.org/2000/svg" xmlns:xlink="http://www.w3.org/1999/xlink">
<g id="graph0" class="graph" transform="scale(1 1) rotate(0) translate(4 107)">
<title>/data/Daten/Entwicklung/ros_workspaces/h4r_ev3_ws/src/h4r_ev3</title>
<polygon fill="white" stroke="none" points="-4,4 -4,-107 426,-107 426,4 -4,4"/>
<g id="clust1" class="cluster"><title>clusterdir_89f6da407dd9b2fe54e94f2c03fc3f84</title>
<g id="a_clust1"><a xlink:href="dir_89f6da407dd9b2fe54e94f2c03fc3f84.html" target="_top" xlink:title="src">
<polygon fill="#ddddee" stroke="black" points="8,-8 8,-95 414,-95 414,-8 8,-8"/>
<text text-anchor="middle" x="211" y="-83" font-family="Helvetica,sans-Serif" font-size="10.00">src</text>
</a>
</g>
</g>
<g id="clust2" class="cluster"><title>clusterdir_6ca498831db44920d132830f5f9e563a</title>
<g id="a_clust2"><a xlink:href="dir_6ca498831db44920d132830f5f9e563a.html" target="_top">
<polygon fill="#eeeeff" stroke="black" points="16,-16 16,-68 406,-68 406,-16 16,-16"/>
</a>
</g>
</g>
<!-- dir_6ca498831db44920d132830f5f9e563a -->
<g id="node1" class="node"><title>dir_6ca498831db44920d132830f5f9e563a</title>
<text text-anchor="middle" x="371" y="-39.5" font-family="Helvetica,sans-Serif" font-size="10.00">h4r_ev3</text>
</g>
<!-- dir_3b44e4002c21c9a81056db00ee2b0758 -->
<g id="node2" class="node"><title>dir_3b44e4002c21c9a81056db00ee2b0758</title>
<g id="a_node2"><a xlink:href="dir_3b44e4002c21c9a81056db00ee2b0758.html" target="_top" xlink:title="h4r_ev3_control">
<polygon fill="white" stroke="red" points="326,-60 240,-60 240,-24 326,-24 326,-60"/>
<text text-anchor="middle" x="283" y="-39.5" font-family="Helvetica,sans-Serif" font-size="10.00">h4r_ev3_control</text>
</a>
</g>
</g>
<!-- dir_2935a2999785624f80599a29a28eb4ad -->
<g id="node3" class="node"><title>dir_2935a2999785624f80599a29a28eb4ad</title>
<g id="a_node3"><a xlink:href="dir_2935a2999785624f80599a29a28eb4ad.html" target="_top" xlink:title="h4r_ev3_launch">
<polygon fill="white" stroke="red" points="221.25,-60 136.75,-60 136.75,-24 221.25,-24 221.25,-60"/>
<text text-anchor="middle" x="179" y="-39.5" font-family="Helvetica,sans-Serif" font-size="10.00">h4r_ev3_launch</text>
</a>
</g>
</g>
<!-- dir_89b8ba129d3d71602c43bf6201497870 -->
<g id="node4" class="node"><title>dir_89b8ba129d3d71602c43bf6201497870</title>
<g id="a_node4"><a xlink:href="dir_89b8ba129d3d71602c43bf6201497870.html" target="_top" xlink:title="h4r_ev3_manager">
<polygon fill="white" stroke="red" points="118,-60 24,-60 24,-24 118,-24 118,-60"/>
<text text-anchor="middle" x="71" y="-39.5" font-family="Helvetica,sans-Serif" font-size="10.00">h4r_ev3_manager</text>
</a>
</g>
</g>
</g>
</svg>
