<?xml version="1.0" encoding="UTF-8" standalone="no"?>
<!DOCTYPE svg PUBLIC "-//W3C//DTD SVG 1.1//EN"
 "http://www.w3.org/Graphics/SVG/1.1/DTD/svg11.dtd">
<!-- Generated by graphviz version 2.36.0 (20140111.2315)
 -->
<!-- Title: /data/Daten/Entwicklung/ros_workspaces/h4r_ev3_ws/src/h4r_ev3/h4r_ev3_manager Pages: 1 -->
<svg width="438pt" height="111pt"
 viewBox="0.00 0.00 438.00 111.00" xmlns="http://www.w3.org/2000/svg" xmlns:xlink="http://www.w3.org/1999/xlink">
<g id="graph0" class="graph" transform="scale(1 1) rotate(0) translate(4 107)">
<title>/data/Daten/Entwicklung/ros_workspaces/h4r_ev3_ws/src/h4r_ev3/h4r_ev3_manager</title>
<polygon fill="white" stroke="none" points="-4,4 -4,-107 434,-107 434,4 -4,4"/>
<g id="clust1" class="cluster"><title>clusterdir_6ca498831db44920d132830f5f9e563a</title>
<g id="a_clust1"><a xlink:href="dir_6ca498831db44920d132830f5f9e563a.html" target="_top" xlink:title="h4r_ev3">
<polygon fill="#ddddee" stroke="black" points="8,-8 8,-95 422,-95 422,-8 8,-8"/>
<text text-anchor="middle" x="215" y="-83" font-family="Helvetica,sans-Serif" font-size="10.00">h4r_ev3</text>
</a>
</g>
</g>
<g id="clust2" class="cluster"><title>clusterdir_89b8ba129d3d71602c43bf6201497870</title>
<g id="a_clust2"><a xlink:href="dir_89b8ba129d3d71602c43bf6201497870.html" target="_top">
<polygon fill="#eeeeff" stroke="black" points="16,-16 16,-68 414,-68 414,-16 16,-16"/>
</a>
</g>
</g>
<!-- dir_89b8ba129d3d71602c43bf6201497870 -->
<g id="node1" class="node"><title>dir_89b8ba129d3d71602c43bf6201497870</title>
<text text-anchor="middle" x="359" y="-39.5" font-family="Helvetica,sans-Serif" font-size="10.00">h4r_ev3_manager</text>
</g>
<!-- dir_4df86d03d3d6840380582a8e26564262 -->
<g id="node2" class="node"><title>dir_4df86d03d3d6840380582a8e26564262</title>
<g id="a_node2"><a xlink:href="dir_4df86d03d3d6840380582a8e26564262.html" target="_top" xlink:title="ctrl_cfg">
<polygon fill="white" stroke="black" points="294,-60 240,-60 240,-24 294,-24 294,-60"/>
<text text-anchor="middle" x="267" y="-39.5" font-family="Helvetica,sans-Serif" font-size="10.00">ctrl_cfg</text>
</a>
</g>
</g>
<!-- dir_b170bd3492dbffa55b4fe819f450b21f -->
<g id="node3" class="node"><title>dir_b170bd3492dbffa55b4fe819f450b21f</title>
<g id="a_node3"><a xlink:href="dir_b170bd3492dbffa55b4fe819f450b21f.html" target="_top" xlink:title="include">
<polygon fill="white" stroke="red" points="222,-60 168,-60 168,-24 222,-24 222,-60"/>
<text text-anchor="middle" x="195" y="-39.5" font-family="Helvetica,sans-Serif" font-size="10.00">include</text>
</a>
</g>
</g>
<!-- dir_a0e62f0a5a57c5497996a3a96e0e07d4 -->
<g id="node4" class="node"><title>dir_a0e62f0a5a57c5497996a3a96e0e07d4</title>
<g id="a_node4"><a xlink:href="dir_a0e62f0a5a57c5497996a3a96e0e07d4.html" target="_top" xlink:title="launch">
<polygon fill="white" stroke="black" points="150,-60 96,-60 96,-24 150,-24 150,-60"/>
<text text-anchor="middle" x="123" y="-39.5" font-family="Helvetica,sans-Serif" font-size="10.00">launch</text>
</a>
</g>
</g>
<!-- dir_1faafe4ce1544dfbdf9264eef9c134e3 -->
<g id="node5" class="node"><title>dir_1faafe4ce1544dfbdf9264eef9c134e3</title>
<g id="a_node5"><a xlink:href="dir_1faafe4ce1544dfbdf9264eef9c134e3.html" target="_top" xlink:title="src">
<polygon fill="white" stroke="red" points="78,-60 24,-60 24,-24 78,-24 78,-60"/>
<text text-anchor="middle" x="51" y="-39.5" font-family="Helvetica,sans-Serif" font-size="10.00">src</text>
</a>
</g>
</g>
</g>
</svg>
