<?xml version="1.0" encoding="UTF-8" standalone="no"?>
<!DOCTYPE svg PUBLIC "-//W3C//DTD SVG 1.1//EN"
 "http://www.w3.org/Graphics/SVG/1.1/DTD/svg11.dtd">
<!-- Generated by graphviz version 2.36.0 (20140111.2315)
 -->
<!-- Title: /data/Daten/Entwicklung/ros_workspaces/h4r_ev3_ws/src/h4r_ev3/h4r_ev3_control Pages: 1 -->
<svg width="366pt" height="111pt"
 viewBox="0.00 0.00 366.00 111.00" xmlns="http://www.w3.org/2000/svg" xmlns:xlink="http://www.w3.org/1999/xlink">
<g id="graph0" class="graph" transform="scale(1 1) rotate(0) translate(4 107)">
<title>/data/Daten/Entwicklung/ros_workspaces/h4r_ev3_ws/src/h4r_ev3/h4r_ev3_control</title>
<polygon fill="white" stroke="none" points="-4,4 -4,-107 362,-107 362,4 -4,4"/>
<g id="clust1" class="cluster"><title>clusterdir_6ca498831db44920d132830f5f9e563a</title>
<g id="a_clust1"><a xlink:href="dir_6ca498831db44920d132830f5f9e563a.html" target="_top" xlink:title="h4r_ev3">
<polygon fill="#ddddee" stroke="black" points="8,-8 8,-95 350,-95 350,-8 8,-8"/>
<text text-anchor="middle" x="179" y="-83" font-family="Helvetica,sans-Serif" font-size="10.00">h4r_ev3</text>
</a>
</g>
</g>
<g id="clust2" class="cluster"><title>clusterdir_3b44e4002c21c9a81056db00ee2b0758</title>
<g id="a_clust2"><a xlink:href="dir_3b44e4002c21c9a81056db00ee2b0758.html" target="_top">
<polygon fill="#eeeeff" stroke="black" points="16,-16 16,-68 342,-68 342,-16 16,-16"/>
</a>
</g>
</g>
<!-- dir_3b44e4002c21c9a81056db00ee2b0758 -->
<g id="node1" class="node"><title>dir_3b44e4002c21c9a81056db00ee2b0758</title>
<text text-anchor="middle" x="291" y="-39.5" font-family="Helvetica,sans-Serif" font-size="10.00">h4r_ev3_control</text>
</g>
<!-- dir_b32ac3a8cf493f11f4bb4a969599b841 -->
<g id="node2" class="node"><title>dir_b32ac3a8cf493f11f4bb4a969599b841</title>
<g id="a_node2"><a xlink:href="dir_b32ac3a8cf493f11f4bb4a969599b841.html" target="_top" xlink:title="include">
<polygon fill="white" stroke="red" points="230,-60 176,-60 176,-24 230,-24 230,-60"/>
<text text-anchor="middle" x="203" y="-39.5" font-family="Helvetica,sans-Serif" font-size="10.00">include</text>
</a>
</g>
</g>
<!-- dir_56334ab8c6ae1f703b7d92d129c46e68 -->
<g id="node3" class="node"><title>dir_56334ab8c6ae1f703b7d92d129c46e68</title>
<g id="a_node3"><a xlink:href="dir_56334ab8c6ae1f703b7d92d129c46e68.html" target="_top" xlink:title="src">
<polygon fill="white" stroke="red" points="158,-60 104,-60 104,-24 158,-24 158,-60"/>
<text text-anchor="middle" x="131" y="-39.5" font-family="Helvetica,sans-Serif" font-size="10.00">src</text>
</a>
</g>
</g>
<!-- dir_626c18b700abcab25fa5f01ead909451 -->
<g id="node4" class="node"><title>dir_626c18b700abcab25fa5f01ead909451</title>
<g id="a_node4"><a xlink:href="dir_626c18b700abcab25fa5f01ead909451.html" target="_top" xlink:title="string_gen">
<polygon fill="white" stroke="black" points="85.5,-60 24.5,-60 24.5,-24 85.5,-24 85.5,-60"/>
<text text-anchor="middle" x="55" y="-39.5" font-family="Helvetica,sans-Serif" font-size="10.00">string_gen</text>
</a>
</g>
</g>
</g>
</svg>
