<?xml version="1.0" encoding="UTF-8" standalone="no"?>
<!DOCTYPE svg PUBLIC "-//W3C//DTD SVG 1.1//EN"
 "http://www.w3.org/Graphics/SVG/1.1/DTD/svg11.dtd">
<!-- Generated by graphviz version 2.36.0 (20140111.2315)
 -->
<!-- Title: Graphical Class Hierarchy Pages: 1 -->
<svg width="264pt" height="203pt"
 viewBox="0.00 0.00 264.00 203.00" xmlns="http://www.w3.org/2000/svg" xmlns:xlink="http://www.w3.org/1999/xlink">
<g id="graph0" class="graph" transform="scale(1 1) rotate(0) translate(4 199)">
<title>Graphical Class Hierarchy</title>
<polygon fill="white" stroke="none" points="-4,4 -4,-199 260,-199 260,4 -4,4"/>
<!-- Node1 -->
<g id="node1" class="node"><title>Node1</title>
<polygon fill="white" stroke="#bfbfbf" points="0.5,-93.5 0.5,-112.5 59.5,-112.5 59.5,-93.5 0.5,-93.5"/>
<text text-anchor="middle" x="30" y="-100.5" font-family="Helvetica,sans-Serif" font-size="10.00">Controller</text>
</g>
<!-- Node2 -->
<g id="node2" class="node"><title>Node2</title>
<g id="a_node2"><a xlink:href="classev3__control_1_1_ev3_color_controller.html" target="_top" xlink:title="ev3_control::Ev3ColorController">
<polygon fill="white" stroke="black" points="98.5,-175.5 98.5,-194.5 253.5,-194.5 253.5,-175.5 98.5,-175.5"/>
<text text-anchor="middle" x="176" y="-182.5" font-family="Helvetica,sans-Serif" font-size="10.00">ev3_control::Ev3ColorController</text>
</a>
</g>
</g>
<!-- Node1&#45;&gt;Node2 -->
<g id="edge1" class="edge"><title>Node1&#45;&gt;Node2</title>
<path fill="none" stroke="midnightblue" d="M44.8059,-120.885C56.8142,-135.208 75.4746,-154.71 96,-166 103.045,-169.875 110.869,-172.967 118.777,-175.432"/>
<polygon fill="midnightblue" stroke="midnightblue" points="47.2413,-118.33 38.2315,-112.756 41.7986,-122.732 47.2413,-118.33"/>
</g>
<!-- Node3 -->
<g id="node3" class="node"><title>Node3</title>
<g id="a_node3"><a xlink:href="classev3__control_1_1_ev3_gyro_controller.html" target="_top" xlink:title="ev3_control::Ev3GyroController">
<polygon fill="white" stroke="black" points="99.5,-137.5 99.5,-156.5 252.5,-156.5 252.5,-137.5 99.5,-137.5"/>
<text text-anchor="middle" x="176" y="-144.5" font-family="Helvetica,sans-Serif" font-size="10.00">ev3_control::Ev3GyroController</text>
</a>
</g>
</g>
<!-- Node1&#45;&gt;Node3 -->
<g id="edge2" class="edge"><title>Node1&#45;&gt;Node3</title>
<path fill="none" stroke="midnightblue" d="M64.5042,-116.14C74.5562,-119.873 85.6598,-123.792 96,-127 108.161,-130.773 121.536,-134.365 133.767,-137.437"/>
<polygon fill="midnightblue" stroke="midnightblue" points="65.4614,-112.76 54.8697,-112.502 62.9885,-119.309 65.4614,-112.76"/>
</g>
<!-- Node4 -->
<g id="node4" class="node"><title>Node4</title>
<g id="a_node4"><a xlink:href="classev3__control_1_1_ev3_infrared_controller.html" target="_top" xlink:title="ev3_control::Ev3Infrared\lController">
<polygon fill="white" stroke="black" points="114.5,-88 114.5,-118 237.5,-118 237.5,-88 114.5,-88"/>
<text text-anchor="start" x="122.5" y="-106" font-family="Helvetica,sans-Serif" font-size="10.00">ev3_control::Ev3Infrared</text>
<text text-anchor="middle" x="176" y="-95" font-family="Helvetica,sans-Serif" font-size="10.00">Controller</text>
</a>
</g>
</g>
<!-- Node1&#45;&gt;Node4 -->
<g id="edge3" class="edge"><title>Node1&#45;&gt;Node4</title>
<path fill="none" stroke="midnightblue" d="M69.8387,-103C83.5566,-103 99.3294,-103 114.416,-103"/>
<polygon fill="midnightblue" stroke="midnightblue" points="69.7945,-99.5001 59.7945,-103 69.7944,-106.5 69.7945,-99.5001"/>
</g>
<!-- Node5 -->
<g id="node5" class="node"><title>Node5</title>
<g id="a_node5"><a xlink:href="classev3__control_1_1_ev3_touch_controller.html" target="_top" xlink:title="ev3_control::Ev3TouchController">
<polygon fill="white" stroke="black" points="96.5,-49.5 96.5,-68.5 255.5,-68.5 255.5,-49.5 96.5,-49.5"/>
<text text-anchor="middle" x="176" y="-56.5" font-family="Helvetica,sans-Serif" font-size="10.00">ev3_control::Ev3TouchController</text>
</a>
</g>
</g>
<!-- Node1&#45;&gt;Node5 -->
<g id="edge4" class="edge"><title>Node1&#45;&gt;Node5</title>
<path fill="none" stroke="midnightblue" d="M64.5042,-89.8599C74.5562,-86.1267 85.6598,-82.208 96,-79 108.161,-75.227 121.536,-71.635 133.767,-68.563"/>
<polygon fill="midnightblue" stroke="midnightblue" points="62.9885,-86.6909 54.8697,-93.498 65.4614,-93.2396 62.9885,-86.6909"/>
</g>
<!-- Node6 -->
<g id="node6" class="node"><title>Node6</title>
<g id="a_node6"><a xlink:href="classev3__control_1_1_ev3_ultrasonic_controller.html" target="_top" xlink:title="ev3_control::Ev3Ultrasonic\lController">
<polygon fill="white" stroke="black" points="109,-0 109,-30 243,-30 243,-0 109,-0"/>
<text text-anchor="start" x="117" y="-18" font-family="Helvetica,sans-Serif" font-size="10.00">ev3_control::Ev3Ultrasonic</text>
<text text-anchor="middle" x="176" y="-7" font-family="Helvetica,sans-Serif" font-size="10.00">Controller</text>
</a>
</g>
</g>
<!-- Node1&#45;&gt;Node6 -->
<g id="edge5" class="edge"><title>Node1&#45;&gt;Node6</title>
<path fill="none" stroke="midnightblue" d="M45.0207,-85.49C57.1571,-71.3906 75.885,-52.0064 96,-40 102.423,-36.166 109.497,-32.8581 116.691,-30.0207"/>
<polygon fill="midnightblue" stroke="midnightblue" points="42.08,-83.5515 38.3625,-93.4727 47.4556,-88.0352 42.08,-83.5515"/>
</g>
</g>
</svg>
