<?xml version="1.0" encoding="UTF-8" standalone="no"?>
<!DOCTYPE svg PUBLIC "-//W3C//DTD SVG 1.1//EN"
 "http://www.w3.org/Graphics/SVG/1.1/DTD/svg11.dtd">
<!-- Generated by graphviz version 2.36.0 (20140111.2315)
 -->
<!-- Title: Graphical Class Hierarchy Pages: 1 -->
<svg width="314pt" height="66pt"
 viewBox="0.00 0.00 314.00 66.00" xmlns="http://www.w3.org/2000/svg" xmlns:xlink="http://www.w3.org/1999/xlink">
<g id="graph0" class="graph" transform="scale(1 1) rotate(0) translate(4 62)">
<title>Graphical Class Hierarchy</title>
<polygon fill="white" stroke="none" points="-4,4 -4,-62 310,-62 310,4 -4,4"/>
<!-- Node1 -->
<g id="node1" class="node"><title>Node1</title>
<g id="a_node1"><a xlink:href="classev3__control_1_1_h4_r_ev3_port.html" target="_top" xlink:title="ev3_control::H4REv3Port">
<polygon fill="white" stroke="black" points="0,-19.5 0,-38.5 128,-38.5 128,-19.5 0,-19.5"/>
<text text-anchor="middle" x="64" y="-26.5" font-family="Helvetica,sans-Serif" font-size="10.00">ev3_control::H4REv3Port</text>
</a>
</g>
</g>
<!-- Node2 -->
<g id="node2" class="node"><title>Node2</title>
<g id="a_node2"><a xlink:href="classev3__control_1_1_h4_r_ev3_motor.html" target="_top" xlink:title="ev3_control::H4REv3Motor">
<polygon fill="white" stroke="black" points="167.5,-38.5 167.5,-57.5 302.5,-57.5 302.5,-38.5 167.5,-38.5"/>
<text text-anchor="middle" x="235" y="-45.5" font-family="Helvetica,sans-Serif" font-size="10.00">ev3_control::H4REv3Motor</text>
</a>
</g>
</g>
<!-- Node1&#45;&gt;Node2 -->
<g id="edge1" class="edge"><title>Node1&#45;&gt;Node2</title>
<path fill="none" stroke="midnightblue" d="M138.377,-37.2495C148.03,-38.3347 157.88,-39.4421 167.411,-40.5137"/>
<polygon fill="midnightblue" stroke="midnightblue" points="138.739,-33.7682 128.41,-36.129 137.957,-40.7244 138.739,-33.7682"/>
</g>
<!-- Node3 -->
<g id="node3" class="node"><title>Node3</title>
<g id="a_node3"><a xlink:href="classev3__control_1_1_h4_r_ev3_sensor.html" target="_top" xlink:title="ev3_control::H4REv3Sensor">
<polygon fill="white" stroke="black" points="164.5,-0.5 164.5,-19.5 305.5,-19.5 305.5,-0.5 164.5,-0.5"/>
<text text-anchor="middle" x="235" y="-7.5" font-family="Helvetica,sans-Serif" font-size="10.00">ev3_control::H4REv3Sensor</text>
</a>
</g>
</g>
<!-- Node1&#45;&gt;Node3 -->
<g id="edge2" class="edge"><title>Node1&#45;&gt;Node3</title>
<path fill="none" stroke="midnightblue" d="M138.404,-20.7475C146.996,-19.7815 155.744,-18.798 164.285,-17.8378"/>
<polygon fill="midnightblue" stroke="midnightblue" points="137.957,-17.2756 128.41,-21.871 138.739,-24.2318 137.957,-17.2756"/>
</g>
</g>
</svg>
